<?xml version="1.0" encoding="UTF-8"?>
  <svg xmlns="http://www.w3.org/2000/svg" width="2400" height="2264" viewBox="0 0 2400 2264">

  <defs>
    <marker id="arrow" viewBox="0 0 10 10" refX="8" refY="5" markerWidth="7" markerHeight="7" orient="auto-start-reverse">
      <path d="M 0 0 L 10 5 L 0 10 z" fill="#2f2f2f" />
    </marker>
    <filter id="paperShadow" x="-10%" y="-10%" width="120%" height="120%">
      <feDropShadow dx="0" dy="3" stdDeviation="3" flood-color="#000000" flood-opacity="0.12"/>
    </filter>
  </defs>
    <rect width="2400" height="2264" fill="#fbfaf7"/>
    <g opacity="0.55"><line x1="0" y1="0" x2="0" y2="2264" stroke="#ece8dd" stroke-width="1"/><line x1="48" y1="0" x2="48" y2="2264" stroke="#ece8dd" stroke-width="1"/><line x1="96" y1="0" x2="96" y2="2264" stroke="#ece8dd" stroke-width="1"/><line x1="144" y1="0" x2="144" y2="2264" stroke="#ece8dd" stroke-width="1"/><line x1="192" y1="0" x2="192" y2="2264" stroke="#ece8dd" stroke-width="1"/><line x1="240" y1="0" x2="240" y2="2264" stroke="#ece8dd" stroke-width="1"/><line x1="288" y1="0" x2="288" y2="2264" stroke="#ece8dd" stroke-width="1"/><line x1="336" y1="0" x2="336" y2="2264" stroke="#ece8dd" stroke-width="1"/><line x1="384" y1="0" x2="384" y2="2264" stroke="#ece8dd" stroke-width="1"/><line x1="432" y1="0" x2="432" y2="2264" stroke="#ece8dd" stroke-width="1"/><line x1="480" y1="0" x2="480" y2="2264" stroke="#ece8dd" stroke-width="1"/><line x1="528" y1="0" x2="528" y2="2264" stroke="#ece8dd" stroke-width="1"/><line x1="576" y1="0" x2="576" y2="2264" stroke="#ece8dd" stroke-width="1"/><line x1="624" y1="0" x2="624" y2="2264" stroke="#ece8dd" stroke-width="1"/><line x1="672" y1="0" x2="672" y2="2264" stroke="#ece8dd" stroke-width="1"/><line x1="720" y1="0" x2="720" y2="2264" stroke="#ece8dd" stroke-width="1"/><line x1="768" y1="0" x2="768" y2="2264" stroke="#ece8dd" stroke-width="1"/><line x1="816" y1="0" x2="816" y2="2264" stroke="#ece8dd" stroke-width="1"/><line x1="864" y1="0" x2="864" y2="2264" stroke="#ece8dd" stroke-width="1"/><line x1="912" y1="0" x2="912" y2="2264" stroke="#ece8dd" stroke-width="1"/><line x1="960" y1="0" x2="960" y2="2264" stroke="#ece8dd" stroke-width="1"/><line x1="1008" y1="0" x2="1008" y2="2264" stroke="#ece8dd" stroke-width="1"/><line x1="1056" y1="0" x2="1056" y2="2264" stroke="#ece8dd" stroke-width="1"/><line x1="1104" y1="0" x2="1104" y2="2264" stroke="#ece8dd" stroke-width="1"/><line x1="1152" y1="0" x2="1152" y2="2264" stroke="#ece8dd" stroke-width="1"/><line x1="1200" y1="0" x2="1200" y2="2264" stroke="#ece8dd" stroke-width="1"/><line x1="1248" y1="0" x2="1248" y2="2264" stroke="#ece8dd" stroke-width="1"/><line x1="1296" y1="0" x2="1296" y2="2264" stroke="#ece8dd" stroke-width="1"/><line x1="1344" y1="0" x2="1344" y2="2264" stroke="#ece8dd" stroke-width="1"/><line x1="1392" y1="0" x2="1392" y2="2264" stroke="#ece8dd" stroke-width="1"/><line x1="1440" y1="0" x2="1440" y2="2264" stroke="#ece8dd" stroke-width="1"/><line x1="1488" y1="0" x2="1488" y2="2264" stroke="#ece8dd" stroke-width="1"/><line x1="1536" y1="0" x2="1536" y2="2264" stroke="#ece8dd" stroke-width="1"/><line x1="1584" y1="0" x2="1584" y2="2264" stroke="#ece8dd" stroke-width="1"/><line x1="1632" y1="0" x2="1632" y2="2264" stroke="#ece8dd" stroke-width="1"/><line x1="1680" y1="0" x2="1680" y2="2264" stroke="#ece8dd" stroke-width="1"/><line x1="1728" y1="0" x2="1728" y2="2264" stroke="#ece8dd" stroke-width="1"/><line x1="1776" y1="0" x2="1776" y2="2264" stroke="#ece8dd" stroke-width="1"/><line x1="1824" y1="0" x2="1824" y2="2264" stroke="#ece8dd" stroke-width="1"/><line x1="1872" y1="0" x2="1872" y2="2264" stroke="#ece8dd" stroke-width="1"/><line x1="1920" y1="0" x2="1920" y2="2264" stroke="#ece8dd" stroke-width="1"/><line x1="1968" y1="0" x2="1968" y2="2264" stroke="#ece8dd" stroke-width="1"/><line x1="2016" y1="0" x2="2016" y2="2264" stroke="#ece8dd" stroke-width="1"/><line x1="2064" y1="0" x2="2064" y2="2264" stroke="#ece8dd" stroke-width="1"/><line x1="2112" y1="0" x2="2112" y2="2264" stroke="#ece8dd" stroke-width="1"/><line x1="2160" y1="0" x2="2160" y2="2264" stroke="#ece8dd" stroke-width="1"/><line x1="2208" y1="0" x2="2208" y2="2264" stroke="#ece8dd" stroke-width="1"/><line x1="2256" y1="0" x2="2256" y2="2264" stroke="#ece8dd" stroke-width="1"/><line x1="2304" y1="0" x2="2304" y2="2264" stroke="#ece8dd" stroke-width="1"/><line x1="2352" y1="0" x2="2352" y2="2264" stroke="#ece8dd" stroke-width="1"/><line x1="2400" y1="0" x2="2400" y2="2264" stroke="#ece8dd" stroke-width="1"/><line x1="0" y1="0" x2="2400" y2="0" stroke="#ece8dd" stroke-width="1"/><line x1="0" y1="48" x2="2400" y2="48" stroke="#ece8dd" stroke-width="1"/><line x1="0" y1="96" x2="2400" y2="96" stroke="#ece8dd" stroke-width="1"/><line x1="0" y1="144" x2="2400" y2="144" stroke="#ece8dd" stroke-width="1"/><line x1="0" y1="192" x2="2400" y2="192" stroke="#ece8dd" stroke-width="1"/><line x1="0" y1="240" x2="2400" y2="240" stroke="#ece8dd" stroke-width="1"/><line x1="0" y1="288" x2="2400" y2="288" stroke="#ece8dd" stroke-width="1"/><line x1="0" y1="336" x2="2400" y2="336" stroke="#ece8dd" stroke-width="1"/><line x1="0" y1="384" x2="2400" y2="384" stroke="#ece8dd" stroke-width="1"/><line x1="0" y1="432" x2="2400" y2="432" stroke="#ece8dd" stroke-width="1"/><line x1="0" y1="480" x2="2400" y2="480" stroke="#ece8dd" stroke-width="1"/><line x1="0" y1="528" x2="2400" y2="528" stroke="#ece8dd" stroke-width="1"/><line x1="0" y1="576" x2="2400" y2="576" stroke="#ece8dd" stroke-width="1"/><line x1="0" y1="624" x2="2400" y2="624" stroke="#ece8dd" stroke-width="1"/><line x1="0" y1="672" x2="2400" y2="672" stroke="#ece8dd" stroke-width="1"/><line x1="0" y1="720" x2="2400" y2="720" stroke="#ece8dd" stroke-width="1"/><line x1="0" y1="768" x2="2400" y2="768" stroke="#ece8dd" stroke-width="1"/><line x1="0" y1="816" x2="2400" y2="816" stroke="#ece8dd" stroke-width="1"/><line x1="0" y1="864" x2="2400" y2="864" stroke="#ece8dd" stroke-width="1"/><line x1="0" y1="912" x2="2400" y2="912" stroke="#ece8dd" stroke-width="1"/><line x1="0" y1="960" x2="2400" y2="960" stroke="#ece8dd" stroke-width="1"/><line x1="0" y1="1008" x2="2400" y2="1008" stroke="#ece8dd" stroke-width="1"/><line x1="0" y1="1056" x2="2400" y2="1056" stroke="#ece8dd" stroke-width="1"/><line x1="0" y1="1104" x2="2400" y2="1104" stroke="#ece8dd" stroke-width="1"/><line x1="0" y1="1152" x2="2400" y2="1152" stroke="#ece8dd" stroke-width="1"/><line x1="0" y1="1200" x2="2400" y2="1200" stroke="#ece8dd" stroke-width="1"/><line x1="0" y1="1248" x2="2400" y2="1248" stroke="#ece8dd" stroke-width="1"/><line x1="0" y1="1296" x2="2400" y2="1296" stroke="#ece8dd" stroke-width="1"/><line x1="0" y1="1344" x2="2400" y2="1344" stroke="#ece8dd" stroke-width="1"/><line x1="0" y1="1392" x2="2400" y2="1392" stroke="#ece8dd" stroke-width="1"/><line x1="0" y1="1440" x2="2400" y2="1440" stroke="#ece8dd" stroke-width="1"/><line x1="0" y1="1488" x2="2400" y2="1488" stroke="#ece8dd" stroke-width="1"/><line x1="0" y1="1536" x2="2400" y2="1536" stroke="#ece8dd" stroke-width="1"/><line x1="0" y1="1584" x2="2400" y2="1584" stroke="#ece8dd" stroke-width="1"/><line x1="0" y1="1632" x2="2400" y2="1632" stroke="#ece8dd" stroke-width="1"/><line x1="0" y1="1680" x2="2400" y2="1680" stroke="#ece8dd" stroke-width="1"/><line x1="0" y1="1728" x2="2400" y2="1728" stroke="#ece8dd" stroke-width="1"/><line x1="0" y1="1776" x2="2400" y2="1776" stroke="#ece8dd" stroke-width="1"/><line x1="0" y1="1824" x2="2400" y2="1824" stroke="#ece8dd" stroke-width="1"/><line x1="0" y1="1872" x2="2400" y2="1872" stroke="#ece8dd" stroke-width="1"/><line x1="0" y1="1920" x2="2400" y2="1920" stroke="#ece8dd" stroke-width="1"/><line x1="0" y1="1968" x2="2400" y2="1968" stroke="#ece8dd" stroke-width="1"/><line x1="0" y1="2016" x2="2400" y2="2016" stroke="#ece8dd" stroke-width="1"/><line x1="0" y1="2064" x2="2400" y2="2064" stroke="#ece8dd" stroke-width="1"/><line x1="0" y1="2112" x2="2400" y2="2112" stroke="#ece8dd" stroke-width="1"/><line x1="0" y1="2160" x2="2400" y2="2160" stroke="#ece8dd" stroke-width="1"/><line x1="0" y1="2208" x2="2400" y2="2208" stroke="#ece8dd" stroke-width="1"/><line x1="0" y1="2256" x2="2400" y2="2256" stroke="#ece8dd" stroke-width="1"/></g>
    <text x="70" y="86" font-size="48" font-weight="800" fill="#222222" text-anchor="start"><tspan x="70" dy="0">V3.0 流程图专项图片</tspan></text>
    <text x="70" y="132" font-size="24" font-weight="500" fill="#66645f" text-anchor="start"><tspan x="70" dy="0">覆盖 V2 到 V3、产品总流程、任务 IA、Runtime、资源锁、Target、执行、结果和 Monitor。</tspan></text>
    <text x="2330" y="86" font-size="22" font-weight="500" fill="#66645f" text-anchor="end"><tspan x="2330" dy="0">完整性: 10 个面板</tspan></text>

    <g>

    <rect x="70" y="190" width="1112" height="360" rx="18" fill="#ffffff" stroke="#2f2f2f" stroke-width="3" />
    <path d="M 75 543 C 381.36 549, 881.76 539, 1177 545" fill="none" stroke="#2f2f2f" stroke-opacity="0.18" stroke-width="2"/>

      <text x="98" y="236" font-size="28" font-weight="750" fill="#222222" text-anchor="start"><tspan x="98" dy="0">1. V2 到 V3 演进</tspan></text>

    <rect x="98" y="294" width="152" height="74" rx="14" fill="#eef5ff" stroke="#2f2f2f" stroke-width="2" />
    <path d="M 103 361 C 140.56 367, 208.95999999999998 357, 245 363" fill="none" stroke="#2f2f2f" stroke-opacity="0.18" stroke-width="2"/>
  <text x="174" y="326" font-size="18" font-weight="650" fill="#222222" text-anchor="middle"><tspan x="174" dy="0">V2 iOS</tspan></text>
    <line x1="254" y1="331" x2="270" y2="331" stroke="#2f2f2f" stroke-width="3" marker-end="url(#arrow)"/>


    <rect x="278" y="294" width="152" height="74" rx="14" fill="#fff8e8" stroke="#2f2f2f" stroke-width="2" />
    <path d="M 283 361 C 320.56 367, 388.96 357, 425 363" fill="none" stroke="#2f2f2f" stroke-opacity="0.18" stroke-width="2"/>
  <text x="354" y="326" font-size="18" font-weight="650" fill="#222222" text-anchor="middle"><tspan x="354" dy="0">跨平台抽象</tspan></text>
    <line x1="434" y1="331" x2="450" y2="331" stroke="#2f2f2f" stroke-width="3" marker-end="url(#arrow)"/>


    <rect x="458" y="294" width="152" height="74" rx="14" fill="#f4f0ff" stroke="#2f2f2f" stroke-width="2" />
    <path d="M 463 361 C 500.56 367, 568.96 357, 605 363" fill="none" stroke="#2f2f2f" stroke-opacity="0.18" stroke-width="2"/>
  <text x="534" y="326" font-size="18" font-weight="650" fill="#222222" text-anchor="middle"><tspan x="534" dy="0">资源锁</tspan></text>
    <line x1="614" y1="331" x2="630" y2="331" stroke="#2f2f2f" stroke-width="3" marker-end="url(#arrow)"/>


    <rect x="638" y="294" width="152" height="74" rx="14" fill="#eefaf0" stroke="#2f2f2f" stroke-width="2" />
    <path d="M 643 361 C 680.56 367, 748.96 357, 785 363" fill="none" stroke="#2f2f2f" stroke-opacity="0.18" stroke-width="2"/>
  <text x="714" y="326" font-size="18" font-weight="650" fill="#222222" text-anchor="middle"><tspan x="714" dy="0">目标库</tspan></text>
    <line x1="794" y1="331" x2="810" y2="331" stroke="#2f2f2f" stroke-width="3" marker-end="url(#arrow)"/>


    <rect x="818" y="294" width="152" height="74" rx="14" fill="#fff0f0" stroke="#2f2f2f" stroke-width="2" />
    <path d="M 823 361 C 860.56 367, 928.96 357, 965 363" fill="none" stroke="#2f2f2f" stroke-opacity="0.18" stroke-width="2"/>
  <text x="894" y="326" font-size="18" font-weight="650" fill="#222222" text-anchor="middle"><tspan x="894" dy="0">Android</tspan></text>
    <line x1="974" y1="331" x2="990" y2="331" stroke="#2f2f2f" stroke-width="3" marker-end="url(#arrow)"/>


    <rect x="998" y="294" width="152" height="74" rx="14" fill="#eef5ff" stroke="#2f2f2f" stroke-width="2" />
    <path d="M 1003 361 C 1040.56 367, 1108.96 357, 1145 363" fill="none" stroke="#2f2f2f" stroke-opacity="0.18" stroke-width="2"/>
  <text x="1074" y="326" font-size="18" font-weight="650" fill="#222222" text-anchor="middle"><tspan x="1074" dy="0">V3 工作站</tspan></text><circle cx="98" cy="403" r="5" fill="#0a84ff"/><text x="116" y="410" font-size="19" font-weight="500" fill="#222222" text-anchor="start"><tspan x="116" dy="0">保留单设备、串行执行、安全停止、Project DSL、本地证据</tspan></text><circle cx="98" cy="434" r="5" fill="#0a84ff"/><text x="116" y="441" font-size="19" font-weight="500" fill="#222222" text-anchor="start"><tspan x="116" dy="0">新增 Target Resolver、Android MVP、结果归因</tspan></text>
    </g>

    <g>

    <rect x="1218" y="190" width="1112" height="360" rx="18" fill="#ffffff" stroke="#2f2f2f" stroke-width="3" />
    <path d="M 1223 543 C 1529.3600000000001 549, 2029.76 539, 2325 545" fill="none" stroke="#2f2f2f" stroke-opacity="0.18" stroke-width="2"/>

      <text x="1246" y="236" font-size="28" font-weight="750" fill="#222222" text-anchor="start"><tspan x="1246" dy="0">2. 产品总流程</tspan></text>

    <rect x="1246" y="294" width="132" height="74" rx="14" fill="#f7f7fb" stroke="#2f2f2f" stroke-width="2" />
    <path d="M 1251 361 C 1282.96 367, 1342.36 357, 1373 363" fill="none" stroke="#2f2f2f" stroke-opacity="0.18" stroke-width="2"/>
  <text x="1312" y="326" font-size="18" font-weight="650" fill="#222222" text-anchor="middle"><tspan x="1312" dy="0">打开</tspan></text>
    <line x1="1382" y1="331" x2="1392" y2="331" stroke="#2f2f2f" stroke-width="3" marker-end="url(#arrow)"/>


    <rect x="1400" y="294" width="132" height="74" rx="14" fill="#f7f7fb" stroke="#2f2f2f" stroke-width="2" />
    <path d="M 1405 361 C 1436.96 367, 1496.36 357, 1527 363" fill="none" stroke="#2f2f2f" stroke-opacity="0.18" stroke-width="2"/>
  <text x="1466" y="326" font-size="18" font-weight="650" fill="#222222" text-anchor="middle"><tspan x="1466" dy="0">连接</tspan></text>
    <line x1="1536" y1="331" x2="1546" y2="331" stroke="#2f2f2f" stroke-width="3" marker-end="url(#arrow)"/>


    <rect x="1554" y="294" width="132" height="74" rx="14" fill="#f7f7fb" stroke="#2f2f2f" stroke-width="2" />
    <path d="M 1559 361 C 1590.96 367, 1650.36 357, 1681 363" fill="none" stroke="#2f2f2f" stroke-opacity="0.18" stroke-width="2"/>
  <text x="1620" y="326" font-size="18" font-weight="650" fill="#222222" text-anchor="middle"><tspan x="1620" dy="0">创建目标</tspan></text>
    <line x1="1690" y1="331" x2="1700" y2="331" stroke="#2f2f2f" stroke-width="3" marker-end="url(#arrow)"/>


    <rect x="1708" y="294" width="132" height="74" rx="14" fill="#f7f7fb" stroke="#2f2f2f" stroke-width="2" />
    <path d="M 1713 361 C 1744.96 367, 1804.36 357, 1835 363" fill="none" stroke="#2f2f2f" stroke-opacity="0.18" stroke-width="2"/>
  <text x="1774" y="326" font-size="18" font-weight="650" fill="#222222" text-anchor="middle"><tspan x="1774" dy="0">录制</tspan></text>
    <line x1="1844" y1="331" x2="1854" y2="331" stroke="#2f2f2f" stroke-width="3" marker-end="url(#arrow)"/>


    <rect x="1862" y="294" width="132" height="74" rx="14" fill="#f7f7fb" stroke="#2f2f2f" stroke-width="2" />
    <path d="M 1867 361 C 1898.96 367, 1958.36 357, 1989 363" fill="none" stroke="#2f2f2f" stroke-opacity="0.18" stroke-width="2"/>
  <text x="1928" y="326" font-size="18" font-weight="650" fill="#222222" text-anchor="middle"><tspan x="1928" dy="0">编辑流程</tspan></text>
    <line x1="1998" y1="331" x2="2008" y2="331" stroke="#2f2f2f" stroke-width="3" marker-end="url(#arrow)"/>


    <rect x="2016" y="294" width="132" height="74" rx="14" fill="#f7f7fb" stroke="#2f2f2f" stroke-width="2" />
    <path d="M 2021 361 C 2052.96 367, 2112.36 357, 2143 363" fill="none" stroke="#2f2f2f" stroke-opacity="0.18" stroke-width="2"/>
  <text x="2082" y="326" font-size="18" font-weight="650" fill="#222222" text-anchor="middle"><tspan x="2082" dy="0">运行</tspan></text>
    <line x1="2152" y1="331" x2="2162" y2="331" stroke="#2f2f2f" stroke-width="3" marker-end="url(#arrow)"/>


    <rect x="2170" y="294" width="132" height="74" rx="14" fill="#f7f7fb" stroke="#2f2f2f" stroke-width="2" />
    <path d="M 2175 361 C 2206.96 367, 2266.36 357, 2297 363" fill="none" stroke="#2f2f2f" stroke-opacity="0.18" stroke-width="2"/>
  <text x="2236" y="326" font-size="18" font-weight="650" fill="#222222" text-anchor="middle"><tspan x="2236" dy="0">结果</tspan></text><circle cx="1246" cy="405" r="5" fill="#0a84ff"/><text x="1264" y="412" font-size="19" font-weight="500" fill="#222222" text-anchor="start"><tspan x="1264" dy="0">不能开始时给下一步</tspan></text><circle cx="1246" cy="436" r="5" fill="#0a84ff"/><text x="1264" y="443" font-size="19" font-weight="500" fill="#222222" text-anchor="start"><tspan x="1264" dy="0">低置信进入人工介入</tspan></text><circle cx="1246" cy="467" r="5" fill="#0a84ff"/><text x="1264" y="474" font-size="19" font-weight="500" fill="#222222" text-anchor="start"><tspan x="1264" dy="0">结果页跳回目标或流程修复</tspan></text>
    </g>

    <g>

    <rect x="70" y="586" width="1112" height="380" rx="18" fill="#ffffff" stroke="#2f2f2f" stroke-width="3" />
    <path d="M 75 959 C 381.36 965, 881.76 955, 1177 961" fill="none" stroke="#2f2f2f" stroke-opacity="0.18" stroke-width="2"/>

      <text x="98" y="632" font-size="28" font-weight="750" fill="#222222" text-anchor="start"><tspan x="98" dy="0">3. 任务型 IA</tspan></text>

    <rect x="98" y="690" width="152" height="74" rx="14" fill="#f7f7fb" stroke="#2f2f2f" stroke-width="2" />
    <path d="M 103 757 C 140.56 763, 208.95999999999998 753, 245 759" fill="none" stroke="#2f2f2f" stroke-opacity="0.18" stroke-width="2"/>
  <text x="174" y="722" font-size="18" font-weight="650" fill="#222222" text-anchor="middle"><tspan x="174" dy="0">开始</tspan></text>
    <line x1="254" y1="727" x2="270" y2="727" stroke="#2f2f2f" stroke-width="3" marker-end="url(#arrow)"/>


    <rect x="278" y="690" width="152" height="74" rx="14" fill="#f7f7fb" stroke="#2f2f2f" stroke-width="2" />
    <path d="M 283 757 C 320.56 763, 388.96 753, 425 759" fill="none" stroke="#2f2f2f" stroke-opacity="0.18" stroke-width="2"/>
  <text x="354" y="722" font-size="18" font-weight="650" fill="#222222" text-anchor="middle"><tspan x="354" dy="0">连接设备</tspan></text>
    <line x1="434" y1="727" x2="450" y2="727" stroke="#2f2f2f" stroke-width="3" marker-end="url(#arrow)"/>


    <rect x="458" y="690" width="152" height="74" rx="14" fill="#f7f7fb" stroke="#2f2f2f" stroke-width="2" />
    <path d="M 463 757 C 500.56 763, 568.96 753, 605 759" fill="none" stroke="#2f2f2f" stroke-opacity="0.18" stroke-width="2"/>
  <text x="534" y="722" font-size="18" font-weight="650" fill="#222222" text-anchor="middle"><tspan x="534" dy="0">开始录制</tspan></text>
    <line x1="614" y1="727" x2="630" y2="727" stroke="#2f2f2f" stroke-width="3" marker-end="url(#arrow)"/>


    <rect x="638" y="690" width="152" height="74" rx="14" fill="#f7f7fb" stroke="#2f2f2f" stroke-width="2" />
    <path d="M 643 757 C 680.56 763, 748.96 753, 785 759" fill="none" stroke="#2f2f2f" stroke-opacity="0.18" stroke-width="2"/>
  <text x="714" y="722" font-size="18" font-weight="650" fill="#222222" text-anchor="middle"><tspan x="714" dy="0">编辑流程</tspan></text>
    <line x1="794" y1="727" x2="810" y2="727" stroke="#2f2f2f" stroke-width="3" marker-end="url(#arrow)"/>


    <rect x="818" y="690" width="152" height="74" rx="14" fill="#f7f7fb" stroke="#2f2f2f" stroke-width="2" />
    <path d="M 823 757 C 860.56 763, 928.96 753, 965 759" fill="none" stroke="#2f2f2f" stroke-opacity="0.18" stroke-width="2"/>
  <text x="894" y="722" font-size="18" font-weight="650" fill="#222222" text-anchor="middle"><tspan x="894" dy="0">运行任务</tspan></text>
    <line x1="974" y1="727" x2="990" y2="727" stroke="#2f2f2f" stroke-width="3" marker-end="url(#arrow)"/>


    <rect x="998" y="690" width="152" height="74" rx="14" fill="#f7f7fb" stroke="#2f2f2f" stroke-width="2" />
    <path d="M 1003 757 C 1040.56 763, 1108.96 753, 1145 759" fill="none" stroke="#2f2f2f" stroke-opacity="0.18" stroke-width="2"/>
  <text x="1074" y="722" font-size="18" font-weight="650" fill="#222222" text-anchor="middle"><tspan x="1074" dy="0">查看结果</tspan></text><circle cx="98" cy="801" r="5" fill="#0a84ff"/><text x="116" y="808" font-size="19" font-weight="500" fill="#222222" text-anchor="start"><tspan x="116" dy="0">Target Library 是共享面板，不升主导航</tspan></text><circle cx="98" cy="832" r="5" fill="#0a84ff"/><text x="116" y="839" font-size="19" font-weight="500" fill="#222222" text-anchor="start"><tspan x="116" dy="0">设置和 Console 是辅助层</tspan></text><circle cx="98" cy="863" r="5" fill="#0a84ff"/><text x="116" y="870" font-size="19" font-weight="500" fill="#222222" text-anchor="start"><tspan x="116" dy="0">命令面板提供全局跳转</tspan></text>
    </g>

    <g>

    <rect x="1218" y="586" width="1112" height="380" rx="18" fill="#ffffff" stroke="#2f2f2f" stroke-width="3" />
    <path d="M 1223 959 C 1529.3600000000001 965, 2029.76 955, 2325 961" fill="none" stroke="#2f2f2f" stroke-opacity="0.18" stroke-width="2"/>

      <text x="1246" y="632" font-size="28" font-weight="750" fill="#222222" text-anchor="start"><tspan x="1246" dy="0">4. 跨平台 Runtime</tspan></text>

    <rect x="1246" y="690" width="188" height="74" rx="14" fill="#f7f7fb" stroke="#2f2f2f" stroke-width="2" />
    <path d="M 1251 757 C 1298.64 763, 1383.24 753, 1429 759" fill="none" stroke="#2f2f2f" stroke-opacity="0.18" stroke-width="2"/>
  <text x="1340" y="722" font-size="18" font-weight="650" fill="#222222" text-anchor="middle"><tspan x="1340" dy="0">Flutter UI</tspan></text>
    <line x1="1438" y1="727" x2="1455" y2="727" stroke="#2f2f2f" stroke-width="3" marker-end="url(#arrow)"/>


    <rect x="1463" y="690" width="188" height="74" rx="14" fill="#f7f7fb" stroke="#2f2f2f" stroke-width="2" />
    <path d="M 1468 757 C 1515.64 763, 1600.24 753, 1646 759" fill="none" stroke="#2f2f2f" stroke-opacity="0.18" stroke-width="2"/>
  <text x="1557" y="722" font-size="18" font-weight="650" fill="#222222" text-anchor="middle"><tspan x="1557" dy="0">Runtime</tspan></text>
    <line x1="1655" y1="727" x2="1672" y2="727" stroke="#2f2f2f" stroke-width="3" marker-end="url(#arrow)"/>


    <rect x="1680" y="690" width="188" height="74" rx="14" fill="#f7f7fb" stroke="#2f2f2f" stroke-width="2" />
    <path d="M 1685 757 C 1732.64 763, 1817.24 753, 1863 759" fill="none" stroke="#2f2f2f" stroke-opacity="0.18" stroke-width="2"/>
  <text x="1774" y="722" font-size="18" font-weight="650" fill="#222222" text-anchor="middle"><tspan x="1774" dy="0">Mobile Driver</tspan></text>
    <line x1="1872" y1="727" x2="1889" y2="727" stroke="#2f2f2f" stroke-width="3" marker-end="url(#arrow)"/>


    <rect x="1897" y="690" width="188" height="74" rx="14" fill="#f7f7fb" stroke="#2f2f2f" stroke-width="2" />
    <path d="M 1902 757 C 1949.64 763, 2034.24 753, 2080 759" fill="none" stroke="#2f2f2f" stroke-opacity="0.18" stroke-width="2"/>
  <text x="1991" y="722" font-size="18" font-weight="650" fill="#222222" text-anchor="middle"><tspan x="1991" dy="0">iOS/Android</tspan></text>
    <line x1="2089" y1="727" x2="2106" y2="727" stroke="#2f2f2f" stroke-width="3" marker-end="url(#arrow)"/>


    <rect x="2114" y="690" width="188" height="74" rx="14" fill="#f7f7fb" stroke="#2f2f2f" stroke-width="2" />
    <path d="M 2119 757 C 2166.64 763, 2251.24 753, 2297 759" fill="none" stroke="#2f2f2f" stroke-opacity="0.18" stroke-width="2"/>
  <text x="2208" y="722" font-size="18" font-weight="650" fill="#222222" text-anchor="middle"><tspan x="2208" dy="0">Evidence</tspan></text><circle cx="1246" cy="801" r="5" fill="#0a84ff"/><text x="1264" y="808" font-size="19" font-weight="500" fill="#222222" text-anchor="start"><tspan x="1264" dy="0">UI 不直接调用 adapter</tspan></text><circle cx="1246" cy="832" r="5" fill="#0a84ff"/><text x="1264" y="839" font-size="19" font-weight="500" fill="#222222" text-anchor="start"><tspan x="1264" dy="0">Runtime 拥有锁、目标、执行、证据</tspan></text><circle cx="1246" cy="863" r="5" fill="#0a84ff"/><text x="1264" y="870" font-size="19" font-weight="500" fill="#222222" text-anchor="start"><tspan x="1264" dy="0">OCR/CV 只辅助解析，不直接点击</tspan></text>
    </g>

    <g>

    <rect x="70" y="1002" width="1112" height="380" rx="18" fill="#ffffff" stroke="#2f2f2f" stroke-width="3" />
    <path d="M 75 1375 C 381.36 1381, 881.76 1371, 1177 1377" fill="none" stroke="#2f2f2f" stroke-opacity="0.18" stroke-width="2"/>

      <text x="98" y="1048" font-size="28" font-weight="750" fill="#222222" text-anchor="start"><tspan x="98" dy="0">5. 资源锁状态机</tspan></text>

    <rect x="98" y="1106" width="152" height="74" rx="14" fill="#eefaf0" stroke="#2f2f2f" stroke-width="2" />
    <path d="M 103 1173 C 140.56 1179, 208.95999999999998 1169, 245 1175" fill="none" stroke="#2f2f2f" stroke-opacity="0.18" stroke-width="2"/>
  <text x="174" y="1138" font-size="18" font-weight="650" fill="#222222" text-anchor="middle"><tspan x="174" dy="0">idle</tspan></text>
    <line x1="254" y1="1143" x2="270" y2="1143" stroke="#2f2f2f" stroke-width="3" marker-end="url(#arrow)"/>


    <rect x="278" y="1106" width="152" height="74" rx="14" fill="#eef5ff" stroke="#2f2f2f" stroke-width="2" />
    <path d="M 283 1173 C 320.56 1179, 388.96 1169, 425 1175" fill="none" stroke="#2f2f2f" stroke-opacity="0.18" stroke-width="2"/>
  <text x="354" y="1138" font-size="18" font-weight="650" fill="#222222" text-anchor="middle"><tspan x="354" dy="0">remote</tspan></text>
    <line x1="434" y1="1143" x2="450" y2="1143" stroke="#2f2f2f" stroke-width="3" marker-end="url(#arrow)"/>


    <rect x="458" y="1106" width="152" height="74" rx="14" fill="#fff8e8" stroke="#2f2f2f" stroke-width="2" />
    <path d="M 463 1173 C 500.56 1179, 568.96 1169, 605 1175" fill="none" stroke="#2f2f2f" stroke-opacity="0.18" stroke-width="2"/>
  <text x="534" y="1138" font-size="18" font-weight="650" fill="#222222" text-anchor="middle"><tspan x="534" dy="0">recording</tspan></text>
    <line x1="614" y1="1143" x2="630" y2="1143" stroke="#2f2f2f" stroke-width="3" marker-end="url(#arrow)"/>


    <rect x="638" y="1106" width="152" height="74" rx="14" fill="#eef5ff" stroke="#2f2f2f" stroke-width="2" />
    <path d="M 643 1173 C 680.56 1179, 748.96 1169, 785 1175" fill="none" stroke="#2f2f2f" stroke-opacity="0.18" stroke-width="2"/>
  <text x="714" y="1138" font-size="18" font-weight="650" fill="#222222" text-anchor="middle"><tspan x="714" dy="0">running</tspan></text>
    <line x1="794" y1="1143" x2="810" y2="1143" stroke="#2f2f2f" stroke-width="3" marker-end="url(#arrow)"/>


    <rect x="818" y="1106" width="152" height="74" rx="14" fill="#f4f0ff" stroke="#2f2f2f" stroke-width="2" />
    <path d="M 823 1173 C 860.56 1179, 928.96 1169, 965 1175" fill="none" stroke="#2f2f2f" stroke-opacity="0.18" stroke-width="2"/>
  <text x="894" y="1138" font-size="18" font-weight="650" fill="#222222" text-anchor="middle"><tspan x="894" dy="0">paused</tspan></text>
    <line x1="974" y1="1143" x2="990" y2="1143" stroke="#2f2f2f" stroke-width="3" marker-end="url(#arrow)"/>


    <rect x="998" y="1106" width="152" height="74" rx="14" fill="#fff0f0" stroke="#2f2f2f" stroke-width="2" />
    <path d="M 1003 1173 C 1040.56 1179, 1108.96 1169, 1145 1175" fill="none" stroke="#2f2f2f" stroke-opacity="0.18" stroke-width="2"/>
  <text x="1074" y="1138" font-size="18" font-weight="650" fill="#222222" text-anchor="middle"><tspan x="1074" dy="0">stopping</tspan></text><circle cx="98" cy="1217" r="5" fill="#0a84ff"/><text x="116" y="1224" font-size="19" font-weight="500" fill="#222222" text-anchor="start"><tspan x="116" dy="0">远控和自动化动作不能并发</tspan></text><circle cx="98" cy="1248" r="5" fill="#0a84ff"/><text x="116" y="1255" font-size="19" font-weight="500" fill="#222222" text-anchor="start"><tspan x="116" dy="0">运行中不能写 workflow 或 target</tspan></text><circle cx="98" cy="1279" r="5" fill="#0a84ff"/><text x="116" y="1286" font-size="19" font-weight="500" fill="#222222" text-anchor="start"><tspan x="116" dy="0">paused 是人工介入态，不是失败态</tspan></text>
    </g>

    <g>

    <rect x="1218" y="1002" width="1112" height="380" rx="18" fill="#ffffff" stroke="#2f2f2f" stroke-width="3" />
    <path d="M 1223 1375 C 1529.3600000000001 1381, 2029.76 1371, 2325 1377" fill="none" stroke="#2f2f2f" stroke-opacity="0.18" stroke-width="2"/>

      <text x="1246" y="1048" font-size="28" font-weight="750" fill="#222222" text-anchor="start"><tspan x="1246" dy="0">6. Target Library 数据流</tspan></text>

    <rect x="1246" y="1106" width="188" height="74" rx="14" fill="#f7f7fb" stroke="#2f2f2f" stroke-width="2" />
    <path d="M 1251 1173 C 1298.64 1179, 1383.24 1169, 1429 1175" fill="none" stroke="#2f2f2f" stroke-opacity="0.18" stroke-width="2"/>
  <text x="1340" y="1138" font-size="18" font-weight="650" fill="#222222" text-anchor="middle"><tspan x="1340" dy="0">当前画面</tspan></text>
    <line x1="1438" y1="1143" x2="1455" y2="1143" stroke="#2f2f2f" stroke-width="3" marker-end="url(#arrow)"/>


    <rect x="1463" y="1106" width="188" height="74" rx="14" fill="#f7f7fb" stroke="#2f2f2f" stroke-width="2" />
    <path d="M 1468 1173 C 1515.64 1179, 1600.24 1169, 1646 1175" fill="none" stroke="#2f2f2f" stroke-opacity="0.18" stroke-width="2"/>
  <text x="1557" y="1138" font-size="18" font-weight="650" fill="#222222" text-anchor="middle"><tspan x="1557" dy="0">目标草稿</tspan></text>
    <line x1="1655" y1="1143" x2="1672" y2="1143" stroke="#2f2f2f" stroke-width="3" marker-end="url(#arrow)"/>


    <rect x="1680" y="1106" width="188" height="74" rx="14" fill="#f7f7fb" stroke="#2f2f2f" stroke-width="2" />
    <path d="M 1685 1173 C 1732.64 1179, 1817.24 1169, 1863 1175" fill="none" stroke="#2f2f2f" stroke-opacity="0.18" stroke-width="2"/>
  <text x="1774" y="1138" font-size="18" font-weight="650" fill="#222222" text-anchor="middle"><tspan x="1774" dy="0">Inspector</tspan></text>
    <line x1="1872" y1="1143" x2="1889" y2="1143" stroke="#2f2f2f" stroke-width="3" marker-end="url(#arrow)"/>


    <rect x="1897" y="1106" width="188" height="74" rx="14" fill="#f7f7fb" stroke="#2f2f2f" stroke-width="2" />
    <path d="M 1902 1173 C 1949.64 1179, 2034.24 1169, 2080 1175" fill="none" stroke="#2f2f2f" stroke-opacity="0.18" stroke-width="2"/>
  <text x="1991" y="1138" font-size="18" font-weight="650" fill="#222222" text-anchor="middle"><tspan x="1991" dy="0">Target Store</tspan></text>
    <line x1="2089" y1="1143" x2="2106" y2="1143" stroke="#2f2f2f" stroke-width="3" marker-end="url(#arrow)"/>


    <rect x="2114" y="1106" width="188" height="74" rx="14" fill="#f7f7fb" stroke="#2f2f2f" stroke-width="2" />
    <path d="M 2119 1173 C 2166.64 1179, 2251.24 1169, 2297 1175" fill="none" stroke="#2f2f2f" stroke-opacity="0.18" stroke-width="2"/>
  <text x="2208" y="1138" font-size="18" font-weight="650" fill="#222222" text-anchor="middle"><tspan x="2208" dy="0">流程引用</tspan></text><circle cx="1246" cy="1217" r="5" fill="#0a84ff"/><text x="1264" y="1224" font-size="19" font-weight="500" fill="#222222" text-anchor="start"><tspan x="1264" dy="0">保存前校验平台能力</tspan></text><circle cx="1246" cy="1248" r="5" fill="#0a84ff"/><text x="1264" y="1255" font-size="19" font-weight="500" fill="#222222" text-anchor="start"><tspan x="1264" dy="0">缺失引用进入检查视图</tspan></text><circle cx="1246" cy="1279" r="5" fill="#0a84ff"/><text x="1264" y="1286" font-size="19" font-weight="500" fill="#222222" text-anchor="start"><tspan x="1264" dy="0">删除目标保护引用节点</tspan></text>
    </g>

    <g>

    <rect x="70" y="1418" width="1112" height="380" rx="18" fill="#ffffff" stroke="#2f2f2f" stroke-width="3" />
    <path d="M 75 1791 C 381.36 1797, 881.76 1787, 1177 1793" fill="none" stroke="#2f2f2f" stroke-opacity="0.18" stroke-width="2"/>

      <text x="98" y="1464" font-size="28" font-weight="750" fill="#222222" text-anchor="start"><tspan x="98" dy="0">7. Target Resolver 决策</tspan></text>

    <rect x="98" y="1522" width="152" height="74" rx="14" fill="#f7f7fb" stroke="#2f2f2f" stroke-width="2" />
    <path d="M 103 1589 C 140.56 1595, 208.95999999999998 1585, 245 1591" fill="none" stroke="#2f2f2f" stroke-opacity="0.18" stroke-width="2"/>
  <text x="174" y="1554" font-size="18" font-weight="650" fill="#222222" text-anchor="middle"><tspan x="174" dy="0">目标定义</tspan></text>
    <line x1="254" y1="1559" x2="270" y2="1559" stroke="#2f2f2f" stroke-width="3" marker-end="url(#arrow)"/>


    <rect x="278" y="1522" width="152" height="74" rx="14" fill="#f7f7fb" stroke="#2f2f2f" stroke-width="2" />
    <path d="M 283 1589 C 320.56 1595, 388.96 1585, 425 1591" fill="none" stroke="#2f2f2f" stroke-opacity="0.18" stroke-width="2"/>
  <text x="354" y="1554" font-size="18" font-weight="650" fill="#222222" text-anchor="middle"><tspan x="354" dy="0">Selector</tspan></text>
    <line x1="434" y1="1559" x2="450" y2="1559" stroke="#2f2f2f" stroke-width="3" marker-end="url(#arrow)"/>


    <rect x="458" y="1522" width="152" height="74" rx="14" fill="#f7f7fb" stroke="#2f2f2f" stroke-width="2" />
    <path d="M 463 1589 C 500.56 1595, 568.96 1585, 605 1591" fill="none" stroke="#2f2f2f" stroke-opacity="0.18" stroke-width="2"/>
  <text x="534" y="1554" font-size="18" font-weight="650" fill="#222222" text-anchor="middle"><tspan x="534" dy="0">Image/Region</tspan></text>
    <line x1="614" y1="1559" x2="630" y2="1559" stroke="#2f2f2f" stroke-width="3" marker-end="url(#arrow)"/>


    <rect x="638" y="1522" width="152" height="74" rx="14" fill="#f7f7fb" stroke="#2f2f2f" stroke-width="2" />
    <path d="M 643 1589 C 680.56 1595, 748.96 1585, 785 1591" fill="none" stroke="#2f2f2f" stroke-opacity="0.18" stroke-width="2"/>
  <text x="714" y="1554" font-size="18" font-weight="650" fill="#222222" text-anchor="middle"><tspan x="714" dy="0">OCR</tspan></text>
    <line x1="794" y1="1559" x2="810" y2="1559" stroke="#2f2f2f" stroke-width="3" marker-end="url(#arrow)"/>


    <rect x="818" y="1522" width="152" height="74" rx="14" fill="#f7f7fb" stroke="#2f2f2f" stroke-width="2" />
    <path d="M 823 1589 C 860.56 1595, 928.96 1585, 965 1591" fill="none" stroke="#2f2f2f" stroke-opacity="0.18" stroke-width="2"/>
  <text x="894" y="1554" font-size="18" font-weight="650" fill="#222222" text-anchor="middle"><tspan x="894" dy="0">Coordinate</tspan></text>
    <line x1="974" y1="1559" x2="990" y2="1559" stroke="#2f2f2f" stroke-width="3" marker-end="url(#arrow)"/>


    <rect x="998" y="1522" width="152" height="74" rx="14" fill="#f7f7fb" stroke="#2f2f2f" stroke-width="2" />
    <path d="M 1003 1589 C 1040.56 1595, 1108.96 1585, 1145 1591" fill="none" stroke="#2f2f2f" stroke-opacity="0.18" stroke-width="2"/>
  <text x="1074" y="1554" font-size="18" font-weight="650" fill="#222222" text-anchor="middle"><tspan x="1074" dy="0">暂停/失败</tspan></text><circle cx="98" cy="1633" r="5" fill="#0a84ff"/><text x="116" y="1640" font-size="19" font-weight="500" fill="#222222" text-anchor="start"><tspan x="116" dy="0">优先稳定策略</tspan></text><circle cx="98" cy="1664" r="5" fill="#0a84ff"/><text x="116" y="1671" font-size="19" font-weight="500" fill="#222222" text-anchor="start"><tspan x="116" dy="0">坐标只作显式兜底</tspan></text><circle cx="98" cy="1695" r="5" fill="#0a84ff"/><text x="116" y="1702" font-size="19" font-weight="500" fill="#222222" text-anchor="start"><tspan x="116" dy="0">低置信不点击，写入证据</tspan></text>
    </g>

    <g>

    <rect x="1218" y="1418" width="1112" height="380" rx="18" fill="#ffffff" stroke="#2f2f2f" stroke-width="3" />
    <path d="M 1223 1791 C 1529.3600000000001 1797, 2029.76 1787, 2325 1793" fill="none" stroke="#2f2f2f" stroke-opacity="0.18" stroke-width="2"/>

      <text x="1246" y="1464" font-size="28" font-weight="750" fill="#222222" text-anchor="start"><tspan x="1246" dy="0">8. Workflow 执行</tspan></text>

    <rect x="1246" y="1522" width="152" height="74" rx="14" fill="#f7f7fb" stroke="#2f2f2f" stroke-width="2" />
    <path d="M 1251 1589 C 1288.56 1595, 1356.96 1585, 1393 1591" fill="none" stroke="#2f2f2f" stroke-opacity="0.18" stroke-width="2"/>
  <text x="1322" y="1554" font-size="18" font-weight="650" fill="#222222" text-anchor="middle"><tspan x="1322" dy="0">预检</tspan></text>
    <line x1="1402" y1="1559" x2="1418" y2="1559" stroke="#2f2f2f" stroke-width="3" marker-end="url(#arrow)"/>


    <rect x="1426" y="1522" width="152" height="74" rx="14" fill="#f7f7fb" stroke="#2f2f2f" stroke-width="2" />
    <path d="M 1431 1589 C 1468.56 1595, 1536.96 1585, 1573 1591" fill="none" stroke="#2f2f2f" stroke-opacity="0.18" stroke-width="2"/>
  <text x="1502" y="1554" font-size="18" font-weight="650" fill="#222222" text-anchor="middle"><tspan x="1502" dy="0">确认</tspan></text>
    <line x1="1582" y1="1559" x2="1598" y2="1559" stroke="#2f2f2f" stroke-width="3" marker-end="url(#arrow)"/>


    <rect x="1606" y="1522" width="152" height="74" rx="14" fill="#f7f7fb" stroke="#2f2f2f" stroke-width="2" />
    <path d="M 1611 1589 C 1648.56 1595, 1716.96 1585, 1753 1591" fill="none" stroke="#2f2f2f" stroke-opacity="0.18" stroke-width="2"/>
  <text x="1682" y="1554" font-size="18" font-weight="650" fill="#222222" text-anchor="middle"><tspan x="1682" dy="0">获取锁</tspan></text>
    <line x1="1762" y1="1559" x2="1778" y2="1559" stroke="#2f2f2f" stroke-width="3" marker-end="url(#arrow)"/>


    <rect x="1786" y="1522" width="152" height="74" rx="14" fill="#f7f7fb" stroke="#2f2f2f" stroke-width="2" />
    <path d="M 1791 1589 C 1828.56 1595, 1896.96 1585, 1933 1591" fill="none" stroke="#2f2f2f" stroke-opacity="0.18" stroke-width="2"/>
  <text x="1862" y="1554" font-size="18" font-weight="650" fill="#222222" text-anchor="middle"><tspan x="1862" dy="0">执行节点</tspan></text>
    <line x1="1942" y1="1559" x2="1958" y2="1559" stroke="#2f2f2f" stroke-width="3" marker-end="url(#arrow)"/>


    <rect x="1966" y="1522" width="152" height="74" rx="14" fill="#f7f7fb" stroke="#2f2f2f" stroke-width="2" />
    <path d="M 1971 1589 C 2008.56 1595, 2076.96 1585, 2113 1591" fill="none" stroke="#2f2f2f" stroke-opacity="0.18" stroke-width="2"/>
  <text x="2042" y="1554" font-size="18" font-weight="650" fill="#222222" text-anchor="middle"><tspan x="2042" dy="0">写证据</tspan></text>
    <line x1="2122" y1="1559" x2="2138" y2="1559" stroke="#2f2f2f" stroke-width="3" marker-end="url(#arrow)"/>


    <rect x="2146" y="1522" width="152" height="74" rx="14" fill="#f7f7fb" stroke="#2f2f2f" stroke-width="2" />
    <path d="M 2151 1589 C 2188.56 1595, 2256.96 1585, 2293 1591" fill="none" stroke="#2f2f2f" stroke-opacity="0.18" stroke-width="2"/>
  <text x="2222" y="1554" font-size="18" font-weight="650" fill="#222222" text-anchor="middle"><tspan x="2222" dy="0">释放锁</tspan></text><circle cx="1246" cy="1633" r="5" fill="#0a84ff"/><text x="1264" y="1640" font-size="19" font-weight="500" fill="#222222" text-anchor="start"><tspan x="1264" dy="0">目标动作先解析再执行</tspan></text><circle cx="1246" cy="1664" r="5" fill="#0a84ff"/><text x="1264" y="1671" font-size="19" font-weight="500" fill="#222222" text-anchor="start"><tspan x="1264" dy="0">断言写 Test Result</tspan></text><circle cx="1246" cy="1695" r="5" fill="#0a84ff"/><text x="1264" y="1702" font-size="19" font-weight="500" fill="#222222" text-anchor="start"><tspan x="1264" dy="0">安全停止等待原子动作结算</tspan></text>
    </g>

    <g>

    <rect x="70" y="1834" width="1112" height="360" rx="18" fill="#ffffff" stroke="#2f2f2f" stroke-width="3" />
    <path d="M 75 2187 C 381.36 2193, 881.76 2183, 1177 2189" fill="none" stroke="#2f2f2f" stroke-opacity="0.18" stroke-width="2"/>

      <text x="98" y="1880" font-size="28" font-weight="750" fill="#222222" text-anchor="start"><tspan x="98" dy="0">9. 结果三层模型</tspan></text>

    <rect x="178" y="1946" width="190" height="74" rx="14" fill="#eef5ff" stroke="#2f2f2f" stroke-width="2" />
    <path d="M 183 2013 C 231.2 2019, 316.7 2009, 363 2015" fill="none" stroke="#2f2f2f" stroke-opacity="0.18" stroke-width="2"/>
  <text x="273" y="1978" font-size="18" font-weight="650" fill="#222222" text-anchor="middle"><tspan x="273" dy="0">Run Status</tspan></text>
    <line x1="372" y1="1983" x2="523" y2="1983" stroke="#2f2f2f" stroke-width="3" marker-end="url(#arrow)"/>


    <rect x="531" y="1946" width="190" height="74" rx="14" fill="#eefaf0" stroke="#2f2f2f" stroke-width="2" />
    <path d="M 536 2013 C 584.2 2019, 669.7 2009, 716 2015" fill="none" stroke="#2f2f2f" stroke-opacity="0.18" stroke-width="2"/>
  <text x="626" y="1978" font-size="18" font-weight="650" fill="#222222" text-anchor="middle"><tspan x="626" dy="0">Test Result</tspan></text>
    <line x1="725" y1="1983" x2="876" y2="1983" stroke="#2f2f2f" stroke-width="3" marker-end="url(#arrow)"/>


    <rect x="884" y="1946" width="190" height="74" rx="14" fill="#fff8e8" stroke="#2f2f2f" stroke-width="2" />
    <path d="M 889 2013 C 937.2 2019, 1022.7 2009, 1069 2015" fill="none" stroke="#2f2f2f" stroke-opacity="0.18" stroke-width="2"/>
  <text x="979" y="1978" font-size="18" font-weight="650" fill="#222222" text-anchor="middle"><tspan x="979" dy="0">Issue Category</tspan></text><circle cx="98" cy="2049" r="5" fill="#0a84ff"/><text x="116" y="2056" font-size="19" font-weight="500" fill="#222222" text-anchor="start"><tspan x="116" dy="0">设备断线不等于断言失败</tspan></text><circle cx="98" cy="2080" r="5" fill="#0a84ff"/><text x="116" y="2087" font-size="19" font-weight="500" fill="#222222" text-anchor="start"><tspan x="116" dy="0">手动停止是 stopped</tspan></text><circle cx="98" cy="2111" r="5" fill="#0a84ff"/><text x="116" y="2118" font-size="19" font-weight="500" fill="#222222" text-anchor="start"><tspan x="116" dy="0">低置信通常是 paused / inconclusive</tspan></text>
    </g>

    <g>

    <rect x="1218" y="1834" width="1112" height="360" rx="18" fill="#ffffff" stroke="#2f2f2f" stroke-width="3" />
    <path d="M 1223 2187 C 1529.3600000000001 2193, 2029.76 2183, 2325 2189" fill="none" stroke="#2f2f2f" stroke-opacity="0.18" stroke-width="2"/>

      <text x="1246" y="1880" font-size="28" font-weight="750" fill="#222222" text-anchor="start"><tspan x="1246" dy="0">10. Monitor 证据读取</tspan></text>

    <rect x="1246" y="1938" width="152" height="74" rx="14" fill="#f7f7fb" stroke="#2f2f2f" stroke-width="2" />
    <path d="M 1251 2005 C 1288.56 2011, 1356.96 2001, 1393 2007" fill="none" stroke="#2f2f2f" stroke-opacity="0.18" stroke-width="2"/>
  <text x="1322" y="1970" font-size="18" font-weight="650" fill="#222222" text-anchor="middle"><tspan x="1322" dy="0">运行历史</tspan></text>
    <line x1="1402" y1="1975" x2="1418" y2="1975" stroke="#2f2f2f" stroke-width="3" marker-end="url(#arrow)"/>


    <rect x="1426" y="1938" width="152" height="74" rx="14" fill="#f7f7fb" stroke="#2f2f2f" stroke-width="2" />
    <path d="M 1431 2005 C 1468.56 2011, 1536.96 2001, 1573 2007" fill="none" stroke="#2f2f2f" stroke-opacity="0.18" stroke-width="2"/>
  <text x="1502" y="1970" font-size="18" font-weight="650" fill="#222222" text-anchor="middle"><tspan x="1502" dy="0">Run Detail</tspan></text>
    <line x1="1582" y1="1975" x2="1598" y2="1975" stroke="#2f2f2f" stroke-width="3" marker-end="url(#arrow)"/>


    <rect x="1606" y="1938" width="152" height="74" rx="14" fill="#f7f7fb" stroke="#2f2f2f" stroke-width="2" />
    <path d="M 1611 2005 C 1648.56 2011, 1716.96 2001, 1753 2007" fill="none" stroke="#2f2f2f" stroke-opacity="0.18" stroke-width="2"/>
  <text x="1682" y="1970" font-size="18" font-weight="650" fill="#222222" text-anchor="middle"><tspan x="1682" dy="0">路径</tspan></text>
    <line x1="1762" y1="1975" x2="1778" y2="1975" stroke="#2f2f2f" stroke-width="3" marker-end="url(#arrow)"/>


    <rect x="1786" y="1938" width="152" height="74" rx="14" fill="#f7f7fb" stroke="#2f2f2f" stroke-width="2" />
    <path d="M 1791 2005 C 1828.56 2011, 1896.96 2001, 1933 2007" fill="none" stroke="#2f2f2f" stroke-opacity="0.18" stroke-width="2"/>
  <text x="1862" y="1970" font-size="18" font-weight="650" fill="#222222" text-anchor="middle"><tspan x="1862" dy="0">目标链</tspan></text>
    <line x1="1942" y1="1975" x2="1958" y2="1975" stroke="#2f2f2f" stroke-width="3" marker-end="url(#arrow)"/>


    <rect x="1966" y="1938" width="152" height="74" rx="14" fill="#f7f7fb" stroke="#2f2f2f" stroke-width="2" />
    <path d="M 1971 2005 C 2008.56 2011, 2076.96 2001, 2113 2007" fill="none" stroke="#2f2f2f" stroke-opacity="0.18" stroke-width="2"/>
  <text x="2042" y="1970" font-size="18" font-weight="650" fill="#222222" text-anchor="middle"><tspan x="2042" dy="0">日志/性能</tspan></text>
    <line x1="2122" y1="1975" x2="2138" y2="1975" stroke="#2f2f2f" stroke-width="3" marker-end="url(#arrow)"/>


    <rect x="2146" y="1938" width="152" height="74" rx="14" fill="#f7f7fb" stroke="#2f2f2f" stroke-width="2" />
    <path d="M 2151 2005 C 2188.56 2011, 2256.96 2001, 2293 2007" fill="none" stroke="#2f2f2f" stroke-opacity="0.18" stroke-width="2"/>
  <text x="2222" y="1970" font-size="18" font-weight="650" fill="#222222" text-anchor="middle"><tspan x="2222" dy="0">建议</tspan></text><circle cx="1246" cy="2049" r="5" fill="#0a84ff"/><text x="1264" y="2056" font-size="19" font-weight="500" fill="#222222" text-anchor="start"><tspan x="1264" dy="0">只读本地 evidence</tspan></text><circle cx="1246" cy="2080" r="5" fill="#0a84ff"/><text x="1264" y="2087" font-size="19" font-weight="500" fill="#222222" text-anchor="start"><tspan x="1264" dy="0">修复目标或流程可跳转</tspan></text><circle cx="1246" cy="2111" r="5" fill="#0a84ff"/><text x="1264" y="2118" font-size="19" font-weight="500" fill="#222222" text-anchor="start"><tspan x="1264" dy="0">复制摘要必须脱敏</tspan></text>
    </g>
  </svg>