<?xml version="1.0" encoding="UTF-8"?>
  <svg xmlns="http://www.w3.org/2000/svg" width="2400" height="2554" viewBox="0 0 2400 2554">

  <defs>
    <marker id="arrow" viewBox="0 0 10 10" refX="8" refY="5" markerWidth="7" markerHeight="7" orient="auto-start-reverse">
      <path d="M 0 0 L 10 5 L 0 10 z" fill="#2f2f2f" />
    </marker>
    <filter id="paperShadow" x="-10%" y="-10%" width="120%" height="120%">
      <feDropShadow dx="0" dy="3" stdDeviation="3" flood-color="#000000" flood-opacity="0.12"/>
    </filter>
  </defs>
    <rect width="2400" height="2554" fill="#fbfaf7"/>
    <g opacity="0.55"><line x1="0" y1="0" x2="0" y2="2554" stroke="#ece8dd" stroke-width="1"/><line x1="48" y1="0" x2="48" y2="2554" stroke="#ece8dd" stroke-width="1"/><line x1="96" y1="0" x2="96" y2="2554" stroke="#ece8dd" stroke-width="1"/><line x1="144" y1="0" x2="144" y2="2554" stroke="#ece8dd" stroke-width="1"/><line x1="192" y1="0" x2="192" y2="2554" stroke="#ece8dd" stroke-width="1"/><line x1="240" y1="0" x2="240" y2="2554" stroke="#ece8dd" stroke-width="1"/><line x1="288" y1="0" x2="288" y2="2554" stroke="#ece8dd" stroke-width="1"/><line x1="336" y1="0" x2="336" y2="2554" stroke="#ece8dd" stroke-width="1"/><line x1="384" y1="0" x2="384" y2="2554" stroke="#ece8dd" stroke-width="1"/><line x1="432" y1="0" x2="432" y2="2554" stroke="#ece8dd" stroke-width="1"/><line x1="480" y1="0" x2="480" y2="2554" stroke="#ece8dd" stroke-width="1"/><line x1="528" y1="0" x2="528" y2="2554" stroke="#ece8dd" stroke-width="1"/><line x1="576" y1="0" x2="576" y2="2554" stroke="#ece8dd" stroke-width="1"/><line x1="624" y1="0" x2="624" y2="2554" stroke="#ece8dd" stroke-width="1"/><line x1="672" y1="0" x2="672" y2="2554" stroke="#ece8dd" stroke-width="1"/><line x1="720" y1="0" x2="720" y2="2554" stroke="#ece8dd" stroke-width="1"/><line x1="768" y1="0" x2="768" y2="2554" stroke="#ece8dd" stroke-width="1"/><line x1="816" y1="0" x2="816" y2="2554" stroke="#ece8dd" stroke-width="1"/><line x1="864" y1="0" x2="864" y2="2554" stroke="#ece8dd" stroke-width="1"/><line x1="912" y1="0" x2="912" y2="2554" stroke="#ece8dd" stroke-width="1"/><line x1="960" y1="0" x2="960" y2="2554" stroke="#ece8dd" stroke-width="1"/><line x1="1008" y1="0" x2="1008" y2="2554" stroke="#ece8dd" stroke-width="1"/><line x1="1056" y1="0" x2="1056" y2="2554" stroke="#ece8dd" stroke-width="1"/><line x1="1104" y1="0" x2="1104" y2="2554" stroke="#ece8dd" stroke-width="1"/><line x1="1152" y1="0" x2="1152" y2="2554" stroke="#ece8dd" stroke-width="1"/><line x1="1200" y1="0" x2="1200" y2="2554" stroke="#ece8dd" stroke-width="1"/><line x1="1248" y1="0" x2="1248" y2="2554" stroke="#ece8dd" stroke-width="1"/><line x1="1296" y1="0" x2="1296" y2="2554" stroke="#ece8dd" stroke-width="1"/><line x1="1344" y1="0" x2="1344" y2="2554" stroke="#ece8dd" stroke-width="1"/><line x1="1392" y1="0" x2="1392" y2="2554" stroke="#ece8dd" stroke-width="1"/><line x1="1440" y1="0" x2="1440" y2="2554" stroke="#ece8dd" stroke-width="1"/><line x1="1488" y1="0" x2="1488" y2="2554" stroke="#ece8dd" stroke-width="1"/><line x1="1536" y1="0" x2="1536" y2="2554" stroke="#ece8dd" stroke-width="1"/><line x1="1584" y1="0" x2="1584" y2="2554" stroke="#ece8dd" stroke-width="1"/><line x1="1632" y1="0" x2="1632" y2="2554" stroke="#ece8dd" stroke-width="1"/><line x1="1680" y1="0" x2="1680" y2="2554" stroke="#ece8dd" stroke-width="1"/><line x1="1728" y1="0" x2="1728" y2="2554" stroke="#ece8dd" stroke-width="1"/><line x1="1776" y1="0" x2="1776" y2="2554" stroke="#ece8dd" stroke-width="1"/><line x1="1824" y1="0" x2="1824" y2="2554" stroke="#ece8dd" stroke-width="1"/><line x1="1872" y1="0" x2="1872" y2="2554" stroke="#ece8dd" stroke-width="1"/><line x1="1920" y1="0" x2="1920" y2="2554" stroke="#ece8dd" stroke-width="1"/><line x1="1968" y1="0" x2="1968" y2="2554" stroke="#ece8dd" stroke-width="1"/><line x1="2016" y1="0" x2="2016" y2="2554" stroke="#ece8dd" stroke-width="1"/><line x1="2064" y1="0" x2="2064" y2="2554" stroke="#ece8dd" stroke-width="1"/><line x1="2112" y1="0" x2="2112" y2="2554" stroke="#ece8dd" stroke-width="1"/><line x1="2160" y1="0" x2="2160" y2="2554" stroke="#ece8dd" stroke-width="1"/><line x1="2208" y1="0" x2="2208" y2="2554" stroke="#ece8dd" stroke-width="1"/><line x1="2256" y1="0" x2="2256" y2="2554" stroke="#ece8dd" stroke-width="1"/><line x1="2304" y1="0" x2="2304" y2="2554" stroke="#ece8dd" stroke-width="1"/><line x1="2352" y1="0" x2="2352" y2="2554" stroke="#ece8dd" stroke-width="1"/><line x1="2400" y1="0" x2="2400" y2="2554" stroke="#ece8dd" stroke-width="1"/><line x1="0" y1="0" x2="2400" y2="0" stroke="#ece8dd" stroke-width="1"/><line x1="0" y1="48" x2="2400" y2="48" stroke="#ece8dd" stroke-width="1"/><line x1="0" y1="96" x2="2400" y2="96" stroke="#ece8dd" stroke-width="1"/><line x1="0" y1="144" x2="2400" y2="144" stroke="#ece8dd" stroke-width="1"/><line x1="0" y1="192" x2="2400" y2="192" stroke="#ece8dd" stroke-width="1"/><line x1="0" y1="240" x2="2400" y2="240" stroke="#ece8dd" stroke-width="1"/><line x1="0" y1="288" x2="2400" y2="288" stroke="#ece8dd" stroke-width="1"/><line x1="0" y1="336" x2="2400" y2="336" stroke="#ece8dd" stroke-width="1"/><line x1="0" y1="384" x2="2400" y2="384" stroke="#ece8dd" stroke-width="1"/><line x1="0" y1="432" x2="2400" y2="432" stroke="#ece8dd" stroke-width="1"/><line x1="0" y1="480" x2="2400" y2="480" stroke="#ece8dd" stroke-width="1"/><line x1="0" y1="528" x2="2400" y2="528" stroke="#ece8dd" stroke-width="1"/><line x1="0" y1="576" x2="2400" y2="576" stroke="#ece8dd" stroke-width="1"/><line x1="0" y1="624" x2="2400" y2="624" stroke="#ece8dd" stroke-width="1"/><line x1="0" y1="672" x2="2400" y2="672" stroke="#ece8dd" stroke-width="1"/><line x1="0" y1="720" x2="2400" y2="720" stroke="#ece8dd" stroke-width="1"/><line x1="0" y1="768" x2="2400" y2="768" stroke="#ece8dd" stroke-width="1"/><line x1="0" y1="816" x2="2400" y2="816" stroke="#ece8dd" stroke-width="1"/><line x1="0" y1="864" x2="2400" y2="864" stroke="#ece8dd" stroke-width="1"/><line x1="0" y1="912" x2="2400" y2="912" stroke="#ece8dd" stroke-width="1"/><line x1="0" y1="960" x2="2400" y2="960" stroke="#ece8dd" stroke-width="1"/><line x1="0" y1="1008" x2="2400" y2="1008" stroke="#ece8dd" stroke-width="1"/><line x1="0" y1="1056" x2="2400" y2="1056" stroke="#ece8dd" stroke-width="1"/><line x1="0" y1="1104" x2="2400" y2="1104" stroke="#ece8dd" stroke-width="1"/><line x1="0" y1="1152" x2="2400" y2="1152" stroke="#ece8dd" stroke-width="1"/><line x1="0" y1="1200" x2="2400" y2="1200" stroke="#ece8dd" stroke-width="1"/><line x1="0" y1="1248" x2="2400" y2="1248" stroke="#ece8dd" stroke-width="1"/><line x1="0" y1="1296" x2="2400" y2="1296" stroke="#ece8dd" stroke-width="1"/><line x1="0" y1="1344" x2="2400" y2="1344" stroke="#ece8dd" stroke-width="1"/><line x1="0" y1="1392" x2="2400" y2="1392" stroke="#ece8dd" stroke-width="1"/><line x1="0" y1="1440" x2="2400" y2="1440" stroke="#ece8dd" stroke-width="1"/><line x1="0" y1="1488" x2="2400" y2="1488" stroke="#ece8dd" stroke-width="1"/><line x1="0" y1="1536" x2="2400" y2="1536" stroke="#ece8dd" stroke-width="1"/><line x1="0" y1="1584" x2="2400" y2="1584" stroke="#ece8dd" stroke-width="1"/><line x1="0" y1="1632" x2="2400" y2="1632" stroke="#ece8dd" stroke-width="1"/><line x1="0" y1="1680" x2="2400" y2="1680" stroke="#ece8dd" stroke-width="1"/><line x1="0" y1="1728" x2="2400" y2="1728" stroke="#ece8dd" stroke-width="1"/><line x1="0" y1="1776" x2="2400" y2="1776" stroke="#ece8dd" stroke-width="1"/><line x1="0" y1="1824" x2="2400" y2="1824" stroke="#ece8dd" stroke-width="1"/><line x1="0" y1="1872" x2="2400" y2="1872" stroke="#ece8dd" stroke-width="1"/><line x1="0" y1="1920" x2="2400" y2="1920" stroke="#ece8dd" stroke-width="1"/><line x1="0" y1="1968" x2="2400" y2="1968" stroke="#ece8dd" stroke-width="1"/><line x1="0" y1="2016" x2="2400" y2="2016" stroke="#ece8dd" stroke-width="1"/><line x1="0" y1="2064" x2="2400" y2="2064" stroke="#ece8dd" stroke-width="1"/><line x1="0" y1="2112" x2="2400" y2="2112" stroke="#ece8dd" stroke-width="1"/><line x1="0" y1="2160" x2="2400" y2="2160" stroke="#ece8dd" stroke-width="1"/><line x1="0" y1="2208" x2="2400" y2="2208" stroke="#ece8dd" stroke-width="1"/><line x1="0" y1="2256" x2="2400" y2="2256" stroke="#ece8dd" stroke-width="1"/><line x1="0" y1="2304" x2="2400" y2="2304" stroke="#ece8dd" stroke-width="1"/><line x1="0" y1="2352" x2="2400" y2="2352" stroke="#ece8dd" stroke-width="1"/><line x1="0" y1="2400" x2="2400" y2="2400" stroke="#ece8dd" stroke-width="1"/><line x1="0" y1="2448" x2="2400" y2="2448" stroke="#ece8dd" stroke-width="1"/><line x1="0" y1="2496" x2="2400" y2="2496" stroke="#ece8dd" stroke-width="1"/><line x1="0" y1="2544" x2="2400" y2="2544" stroke="#ece8dd" stroke-width="1"/></g>
    <text x="70" y="86" font-size="48" font-weight="800" fill="#222222" text-anchor="start"><tspan x="70" dy="0">V3.0 HTML 静态原型图片</tspan></text>
    <text x="70" y="132" font-size="24" font-weight="500" fill="#66645f" text-anchor="start"><tspan x="70" dy="0">将离线 HTML 原型的主要页面和浮层整理为完整总览截图式图片。</tspan></text>
    <text x="2330" y="86" font-size="22" font-weight="500" fill="#66645f" text-anchor="end"><tspan x="2330" dy="0">完整性: 9 个面板</tspan></text>

    <g>

    <rect x="70" y="190" width="1112" height="430" rx="18" fill="#ffffff" stroke="#2f2f2f" stroke-width="3" />
    <path d="M 75 613 C 381.36 619, 881.76 609, 1177 615" fill="none" stroke="#2f2f2f" stroke-opacity="0.18" stroke-width="2"/>

      <text x="98" y="236" font-size="28" font-weight="750" fill="#222222" text-anchor="start"><tspan x="98" dy="0">开始</tspan></text>

    <rect x="98" y="286" width="1056" height="294" rx="14" fill="#fdfdfd" stroke="#2f2f2f" stroke-width="2" />
    <path d="M 103 573 C 393.68 579, 868.88 569, 1149 575" fill="none" stroke="#2f2f2f" stroke-opacity="0.18" stroke-width="2"/>
  <rect x="98" y="286" width="1056" height="42" rx="14" fill="#f0f0f5" stroke="#2f2f2f" stroke-width="2"/><rect x="98" y="328" width="84" height="252" fill="#f5f5f7" stroke="#2f2f2f" stroke-width="2"/><text x="118" y="314" font-size="18" font-weight="750" fill="#222222" text-anchor="start"><tspan x="118" dy="0">开始</tspan></text><text x="110" y="364" font-size="14" font-weight="500" fill="#66645f" text-anchor="start"><tspan x="110" dy="0">任务导</tspan><tspan x="110" dy="20">航</tspan></text>
    <rect x="206" y="352" width="924" height="76" rx="12" fill="#ffffff" stroke="#2f2f2f" stroke-width="2" />
    <path d="M 211 421 C 464.72 427, 880.52 417, 1125 423" fill="none" stroke="#2f2f2f" stroke-opacity="0.18" stroke-width="2"/>
  <text x="224" y="382" font-size="17" font-weight="700" fill="#222222" text-anchor="start"><tspan x="224" dy="0">登录检查可以运行</tspan></text>
    <rect x="206" y="456" width="450" height="102" rx="12" fill="#ffffff" stroke="#2f2f2f" stroke-width="2" />
    <path d="M 211 551 C 332 557, 534.5 547, 651 553" fill="none" stroke="#2f2f2f" stroke-opacity="0.18" stroke-width="2"/>

    <rect x="680" y="456" width="450" height="102" rx="12" fill="#ffffff" stroke="#2f2f2f" stroke-width="2" />
    <path d="M 685 551 C 806 557, 1008.5 547, 1125 553" fill="none" stroke="#2f2f2f" stroke-opacity="0.18" stroke-width="2"/>
  <text x="224" y="490" font-size="15" font-weight="500" fill="#222222" text-anchor="start"><tspan x="224" dy="0">三段摘要</tspan></text><text x="698" y="490" font-size="15" font-weight="500" fill="#222222" text-anchor="start"><tspan x="698" dy="0">最近流程 / 问题</tspan></text>
    </g>

    <g>

    <rect x="1218" y="190" width="1112" height="430" rx="18" fill="#ffffff" stroke="#2f2f2f" stroke-width="3" />
    <path d="M 1223 613 C 1529.3600000000001 619, 2029.76 609, 2325 615" fill="none" stroke="#2f2f2f" stroke-opacity="0.18" stroke-width="2"/>

      <text x="1246" y="236" font-size="28" font-weight="750" fill="#222222" text-anchor="start"><tspan x="1246" dy="0">连接设备</tspan></text>

    <rect x="1246" y="286" width="1056" height="294" rx="14" fill="#fdfdfd" stroke="#2f2f2f" stroke-width="2" />
    <path d="M 1251 573 C 1541.68 579, 2016.88 569, 2297 575" fill="none" stroke="#2f2f2f" stroke-opacity="0.18" stroke-width="2"/>
  <rect x="1246" y="286" width="1056" height="42" rx="14" fill="#f0f0f5" stroke="#2f2f2f" stroke-width="2"/><rect x="1246" y="328" width="84" height="252" fill="#f5f5f7" stroke="#2f2f2f" stroke-width="2"/><text x="1266" y="314" font-size="18" font-weight="750" fill="#222222" text-anchor="start"><tspan x="1266" dy="0">连接设备</tspan></text><text x="1258" y="364" font-size="14" font-weight="500" fill="#66645f" text-anchor="start"><tspan x="1258" dy="0">任务导</tspan><tspan x="1258" dy="20">航</tspan></text>
    <rect x="1354" y="352" width="924" height="76" rx="12" fill="#ffffff" stroke="#2f2f2f" stroke-width="2" />
    <path d="M 1359 421 C 1612.72 427, 2028.52 417, 2273 423" fill="none" stroke="#2f2f2f" stroke-opacity="0.18" stroke-width="2"/>
  <text x="1372" y="382" font-size="17" font-weight="700" fill="#222222" text-anchor="start"><tspan x="1372" dy="0">iOS 已连接</tspan></text>
    <rect x="1354" y="456" width="450" height="102" rx="12" fill="#ffffff" stroke="#2f2f2f" stroke-width="2" />
    <path d="M 1359 551 C 1480 557, 1682.5 547, 1799 553" fill="none" stroke="#2f2f2f" stroke-opacity="0.18" stroke-width="2"/>

    <rect x="1828" y="456" width="450" height="102" rx="12" fill="#ffffff" stroke="#2f2f2f" stroke-width="2" />
    <path d="M 1833 551 C 1954 557, 2156.5 547, 2273 553" fill="none" stroke="#2f2f2f" stroke-opacity="0.18" stroke-width="2"/>
  <text x="1372" y="490" font-size="15" font-weight="500" fill="#222222" text-anchor="start"><tspan x="1372" dy="0">设备画面</tspan></text><text x="1846" y="490" font-size="15" font-weight="500" fill="#222222" text-anchor="start"><tspan x="1846" dy="0">创建目标</tspan></text>
    </g>

    <g>

    <rect x="70" y="656" width="1112" height="430" rx="18" fill="#ffffff" stroke="#2f2f2f" stroke-width="3" />
    <path d="M 75 1079 C 381.36 1085, 881.76 1075, 1177 1081" fill="none" stroke="#2f2f2f" stroke-opacity="0.18" stroke-width="2"/>

      <text x="98" y="702" font-size="28" font-weight="750" fill="#222222" text-anchor="start"><tspan x="98" dy="0">开始录制</tspan></text>

    <rect x="98" y="752" width="1056" height="294" rx="14" fill="#fdfdfd" stroke="#2f2f2f" stroke-width="2" />
    <path d="M 103 1039 C 393.68 1045, 868.88 1035, 1149 1041" fill="none" stroke="#2f2f2f" stroke-opacity="0.18" stroke-width="2"/>
  <rect x="98" y="752" width="1056" height="42" rx="14" fill="#f0f0f5" stroke="#2f2f2f" stroke-width="2"/><rect x="98" y="794" width="84" height="252" fill="#f5f5f7" stroke="#2f2f2f" stroke-width="2"/><text x="118" y="780" font-size="18" font-weight="750" fill="#222222" text-anchor="start"><tspan x="118" dy="0">开始录制</tspan></text><text x="110" y="830" font-size="14" font-weight="500" fill="#66645f" text-anchor="start"><tspan x="110" dy="0">任务导</tspan><tspan x="110" dy="20">航</tspan></text>
    <rect x="206" y="818" width="924" height="76" rx="12" fill="#ffffff" stroke="#2f2f2f" stroke-width="2" />
    <path d="M 211 887 C 464.72 893, 880.52 883, 1125 889" fill="none" stroke="#2f2f2f" stroke-opacity="0.18" stroke-width="2"/>
  <text x="224" y="848" font-size="17" font-weight="700" fill="#222222" text-anchor="start"><tspan x="224" dy="0">现场预览</tspan></text>
    <rect x="206" y="922" width="450" height="102" rx="12" fill="#ffffff" stroke="#2f2f2f" stroke-width="2" />
    <path d="M 211 1017 C 332 1023, 534.5 1013, 651 1019" fill="none" stroke="#2f2f2f" stroke-opacity="0.18" stroke-width="2"/>

    <rect x="680" y="922" width="450" height="102" rx="12" fill="#ffffff" stroke="#2f2f2f" stroke-width="2" />
    <path d="M 685 1017 C 806 1023, 1008.5 1013, 1125 1019" fill="none" stroke="#2f2f2f" stroke-opacity="0.18" stroke-width="2"/>
  <text x="224" y="956" font-size="15" font-weight="500" fill="#222222" text-anchor="start"><tspan x="224" dy="0">动作时间轴</tspan></text><text x="698" y="956" font-size="15" font-weight="500" fill="#222222" text-anchor="start"><tspan x="698" dy="0">生成流程</tspan></text>
    </g>

    <g>

    <rect x="1218" y="656" width="1112" height="430" rx="18" fill="#ffffff" stroke="#2f2f2f" stroke-width="3" />
    <path d="M 1223 1079 C 1529.3600000000001 1085, 2029.76 1075, 2325 1081" fill="none" stroke="#2f2f2f" stroke-opacity="0.18" stroke-width="2"/>

      <text x="1246" y="702" font-size="28" font-weight="750" fill="#222222" text-anchor="start"><tspan x="1246" dy="0">编辑流程</tspan></text>

    <rect x="1246" y="752" width="1056" height="294" rx="14" fill="#fdfdfd" stroke="#2f2f2f" stroke-width="2" />
    <path d="M 1251 1039 C 1541.68 1045, 2016.88 1035, 2297 1041" fill="none" stroke="#2f2f2f" stroke-opacity="0.18" stroke-width="2"/>
  <rect x="1246" y="752" width="1056" height="42" rx="14" fill="#f0f0f5" stroke="#2f2f2f" stroke-width="2"/><rect x="1246" y="794" width="84" height="252" fill="#f5f5f7" stroke="#2f2f2f" stroke-width="2"/><text x="1266" y="780" font-size="18" font-weight="750" fill="#222222" text-anchor="start"><tspan x="1266" dy="0">编辑流程</tspan></text><text x="1258" y="830" font-size="14" font-weight="500" fill="#66645f" text-anchor="start"><tspan x="1258" dy="0">任务导</tspan><tspan x="1258" dy="20">航</tspan></text>
    <rect x="1354" y="818" width="924" height="76" rx="12" fill="#ffffff" stroke="#2f2f2f" stroke-width="2" />
    <path d="M 1359 887 C 1612.72 893, 2028.52 883, 2273 889" fill="none" stroke="#2f2f2f" stroke-opacity="0.18" stroke-width="2"/>
  <text x="1372" y="848" font-size="17" font-weight="700" fill="#222222" text-anchor="start"><tspan x="1372" dy="0">目标库</tspan></text>
    <rect x="1354" y="922" width="450" height="102" rx="12" fill="#ffffff" stroke="#2f2f2f" stroke-width="2" />
    <path d="M 1359 1017 C 1480 1023, 1682.5 1013, 1799 1019" fill="none" stroke="#2f2f2f" stroke-opacity="0.18" stroke-width="2"/>

    <rect x="1828" y="922" width="450" height="102" rx="12" fill="#ffffff" stroke="#2f2f2f" stroke-width="2" />
    <path d="M 1833 1017 C 1954 1023, 2156.5 1013, 2273 1019" fill="none" stroke="#2f2f2f" stroke-opacity="0.18" stroke-width="2"/>
  <text x="1372" y="956" font-size="15" font-weight="500" fill="#222222" text-anchor="start"><tspan x="1372" dy="0">流程画布</tspan></text><text x="1846" y="956" font-size="15" font-weight="500" fill="#222222" text-anchor="start"><tspan x="1846" dy="0">Inspector</tspan></text>
    </g>

    <g>

    <rect x="70" y="1122" width="1112" height="430" rx="18" fill="#ffffff" stroke="#2f2f2f" stroke-width="3" />
    <path d="M 75 1545 C 381.36 1551, 881.76 1541, 1177 1547" fill="none" stroke="#2f2f2f" stroke-opacity="0.18" stroke-width="2"/>

      <text x="98" y="1168" font-size="28" font-weight="750" fill="#222222" text-anchor="start"><tspan x="98" dy="0">运行任务</tspan></text>

    <rect x="98" y="1218" width="1056" height="294" rx="14" fill="#fdfdfd" stroke="#2f2f2f" stroke-width="2" />
    <path d="M 103 1505 C 393.68 1511, 868.88 1501, 1149 1507" fill="none" stroke="#2f2f2f" stroke-opacity="0.18" stroke-width="2"/>
  <rect x="98" y="1218" width="1056" height="42" rx="14" fill="#f0f0f5" stroke="#2f2f2f" stroke-width="2"/><rect x="98" y="1260" width="84" height="252" fill="#f5f5f7" stroke="#2f2f2f" stroke-width="2"/><text x="118" y="1246" font-size="18" font-weight="750" fill="#222222" text-anchor="start"><tspan x="118" dy="0">运行任务</tspan></text><text x="110" y="1296" font-size="14" font-weight="500" fill="#66645f" text-anchor="start"><tspan x="110" dy="0">任务导</tspan><tspan x="110" dy="20">航</tspan></text>
    <rect x="206" y="1284" width="924" height="76" rx="12" fill="#ffffff" stroke="#2f2f2f" stroke-width="2" />
    <path d="M 211 1353 C 464.72 1359, 880.52 1349, 1125 1355" fill="none" stroke="#2f2f2f" stroke-opacity="0.18" stroke-width="2"/>
  <text x="224" y="1314" font-size="17" font-weight="700" fill="#222222" text-anchor="start"><tspan x="224" dy="0">等待人工确认</tspan></text>
    <rect x="206" y="1388" width="450" height="102" rx="12" fill="#ffffff" stroke="#2f2f2f" stroke-width="2" />
    <path d="M 211 1483 C 332 1489, 534.5 1479, 651 1485" fill="none" stroke="#2f2f2f" stroke-opacity="0.18" stroke-width="2"/>

    <rect x="680" y="1388" width="450" height="102" rx="12" fill="#ffffff" stroke="#2f2f2f" stroke-width="2" />
    <path d="M 685 1483 C 806 1489, 1008.5 1479, 1125 1485" fill="none" stroke="#2f2f2f" stroke-opacity="0.18" stroke-width="2"/>
  <text x="224" y="1422" font-size="15" font-weight="500" fill="#222222" text-anchor="start"><tspan x="224" dy="0">预检</tspan></text><text x="698" y="1422" font-size="15" font-weight="500" fill="#222222" text-anchor="start"><tspan x="698" dy="0">当前运行</tspan></text>
    </g>

    <g>

    <rect x="1218" y="1122" width="1112" height="430" rx="18" fill="#ffffff" stroke="#2f2f2f" stroke-width="3" />
    <path d="M 1223 1545 C 1529.3600000000001 1551, 2029.76 1541, 2325 1547" fill="none" stroke="#2f2f2f" stroke-opacity="0.18" stroke-width="2"/>

      <text x="1246" y="1168" font-size="28" font-weight="750" fill="#222222" text-anchor="start"><tspan x="1246" dy="0">查看结果</tspan></text>

    <rect x="1246" y="1218" width="1056" height="294" rx="14" fill="#fdfdfd" stroke="#2f2f2f" stroke-width="2" />
    <path d="M 1251 1505 C 1541.68 1511, 2016.88 1501, 2297 1507" fill="none" stroke="#2f2f2f" stroke-opacity="0.18" stroke-width="2"/>
  <rect x="1246" y="1218" width="1056" height="42" rx="14" fill="#f0f0f5" stroke="#2f2f2f" stroke-width="2"/><rect x="1246" y="1260" width="84" height="252" fill="#f5f5f7" stroke="#2f2f2f" stroke-width="2"/><text x="1266" y="1246" font-size="18" font-weight="750" fill="#222222" text-anchor="start"><tspan x="1266" dy="0">查看结果</tspan></text><text x="1258" y="1296" font-size="14" font-weight="500" fill="#66645f" text-anchor="start"><tspan x="1258" dy="0">任务导</tspan><tspan x="1258" dy="20">航</tspan></text>
    <rect x="1354" y="1284" width="924" height="76" rx="12" fill="#ffffff" stroke="#2f2f2f" stroke-width="2" />
    <path d="M 1359 1353 C 1612.72 1359, 2028.52 1349, 2273 1355" fill="none" stroke="#2f2f2f" stroke-opacity="0.18" stroke-width="2"/>
  <text x="1372" y="1314" font-size="17" font-weight="700" fill="#222222" text-anchor="start"><tspan x="1372" dy="0">结果指标</tspan></text>
    <rect x="1354" y="1388" width="450" height="102" rx="12" fill="#ffffff" stroke="#2f2f2f" stroke-width="2" />
    <path d="M 1359 1483 C 1480 1489, 1682.5 1479, 1799 1485" fill="none" stroke="#2f2f2f" stroke-opacity="0.18" stroke-width="2"/>

    <rect x="1828" y="1388" width="450" height="102" rx="12" fill="#ffffff" stroke="#2f2f2f" stroke-width="2" />
    <path d="M 1833 1483 C 1954 1489, 2156.5 1479, 2273 1485" fill="none" stroke="#2f2f2f" stroke-opacity="0.18" stroke-width="2"/>
  <text x="1372" y="1422" font-size="15" font-weight="500" fill="#222222" text-anchor="start"><tspan x="1372" dy="0">运行历史</tspan></text><text x="1846" y="1422" font-size="15" font-weight="500" fill="#222222" text-anchor="start"><tspan x="1846" dy="0">详情</tspan></text>
    </g>

    <g>

    <rect x="70" y="1588" width="1112" height="430" rx="18" fill="#ffffff" stroke="#2f2f2f" stroke-width="3" />
    <path d="M 75 2011 C 381.36 2017, 881.76 2007, 1177 2013" fill="none" stroke="#2f2f2f" stroke-opacity="0.18" stroke-width="2"/>

      <text x="98" y="1634" font-size="28" font-weight="750" fill="#222222" text-anchor="start"><tspan x="98" dy="0">目标 Drawer</tspan></text>

    <rect x="98" y="1684" width="1056" height="294" rx="14" fill="#fdfdfd" stroke="#2f2f2f" stroke-width="2" />
    <path d="M 103 1971 C 393.68 1977, 868.88 1967, 1149 1973" fill="none" stroke="#2f2f2f" stroke-opacity="0.18" stroke-width="2"/>
  <rect x="98" y="1684" width="1056" height="42" rx="14" fill="#f0f0f5" stroke="#2f2f2f" stroke-width="2"/><rect x="98" y="1726" width="84" height="252" fill="#f5f5f7" stroke="#2f2f2f" stroke-width="2"/><text x="118" y="1712" font-size="18" font-weight="750" fill="#222222" text-anchor="start"><tspan x="118" dy="0">目标 Drawer</tspan></text><text x="110" y="1762" font-size="14" font-weight="500" fill="#66645f" text-anchor="start"><tspan x="110" dy="0">任务导</tspan><tspan x="110" dy="20">航</tspan></text>
    <rect x="206" y="1750" width="924" height="76" rx="12" fill="#ffffff" stroke="#2f2f2f" stroke-width="2" />
    <path d="M 211 1819 C 464.72 1825, 880.52 1815, 1125 1821" fill="none" stroke="#2f2f2f" stroke-opacity="0.18" stroke-width="2"/>
  <text x="224" y="1780" font-size="17" font-weight="700" fill="#222222" text-anchor="start"><tspan x="224" dy="0">登录按钮</tspan></text>
    <rect x="206" y="1854" width="450" height="102" rx="12" fill="#ffffff" stroke="#2f2f2f" stroke-width="2" />
    <path d="M 211 1949 C 332 1955, 534.5 1945, 651 1951" fill="none" stroke="#2f2f2f" stroke-opacity="0.18" stroke-width="2"/>

    <rect x="680" y="1854" width="450" height="102" rx="12" fill="#ffffff" stroke="#2f2f2f" stroke-width="2" />
    <path d="M 685 1949 C 806 1955, 1008.5 1945, 1125 1951" fill="none" stroke="#2f2f2f" stroke-opacity="0.18" stroke-width="2"/>
  <text x="224" y="1888" font-size="15" font-weight="500" fill="#222222" text-anchor="start"><tspan x="224" dy="0">策略和验证</tspan></text><text x="698" y="1888" font-size="15" font-weight="500" fill="#222222" text-anchor="start"><tspan x="698" dy="0">保存目标</tspan></text>
    </g>

    <g>

    <rect x="1218" y="1588" width="1112" height="430" rx="18" fill="#ffffff" stroke="#2f2f2f" stroke-width="3" />
    <path d="M 1223 2011 C 1529.3600000000001 2017, 2029.76 2007, 2325 2013" fill="none" stroke="#2f2f2f" stroke-opacity="0.18" stroke-width="2"/>

      <text x="1246" y="1634" font-size="28" font-weight="750" fill="#222222" text-anchor="start"><tspan x="1246" dy="0">运行详情 Drawer</tspan></text>

    <rect x="1246" y="1684" width="1056" height="294" rx="14" fill="#fdfdfd" stroke="#2f2f2f" stroke-width="2" />
    <path d="M 1251 1971 C 1541.68 1977, 2016.88 1967, 2297 1973" fill="none" stroke="#2f2f2f" stroke-opacity="0.18" stroke-width="2"/>
  <rect x="1246" y="1684" width="1056" height="42" rx="14" fill="#f0f0f5" stroke="#2f2f2f" stroke-width="2"/><rect x="1246" y="1726" width="84" height="252" fill="#f5f5f7" stroke="#2f2f2f" stroke-width="2"/><text x="1266" y="1712" font-size="18" font-weight="750" fill="#222222" text-anchor="start"><tspan x="1266" dy="0">运行详情 Drawer</tspan></text><text x="1258" y="1762" font-size="14" font-weight="500" fill="#66645f" text-anchor="start"><tspan x="1258" dy="0">任务导</tspan><tspan x="1258" dy="20">航</tspan></text>
    <rect x="1354" y="1750" width="924" height="76" rx="12" fill="#ffffff" stroke="#2f2f2f" stroke-width="2" />
    <path d="M 1359 1819 C 1612.72 1825, 2028.52 1815, 2273 1821" fill="none" stroke="#2f2f2f" stroke-opacity="0.18" stroke-width="2"/>
  <text x="1372" y="1780" font-size="17" font-weight="700" fill="#222222" text-anchor="start"><tspan x="1372" dy="0">三层结果</tspan></text>
    <rect x="1354" y="1854" width="450" height="102" rx="12" fill="#ffffff" stroke="#2f2f2f" stroke-width="2" />
    <path d="M 1359 1949 C 1480 1955, 1682.5 1945, 1799 1951" fill="none" stroke="#2f2f2f" stroke-opacity="0.18" stroke-width="2"/>

    <rect x="1828" y="1854" width="450" height="102" rx="12" fill="#ffffff" stroke="#2f2f2f" stroke-width="2" />
    <path d="M 1833 1949 C 1954 1955, 2156.5 1945, 2273 1951" fill="none" stroke="#2f2f2f" stroke-opacity="0.18" stroke-width="2"/>
  <text x="1372" y="1888" font-size="15" font-weight="500" fill="#222222" text-anchor="start"><tspan x="1372" dy="0">目标解析链</tspan></text><text x="1846" y="1888" font-size="15" font-weight="500" fill="#222222" text-anchor="start"><tspan x="1846" dy="0">复制摘要</tspan></text>
    </g>

    <g>

    <rect x="70" y="2054" width="1112" height="430" rx="18" fill="#ffffff" stroke="#2f2f2f" stroke-width="3" />
    <path d="M 75 2477 C 381.36 2483, 881.76 2473, 1177 2479" fill="none" stroke="#2f2f2f" stroke-opacity="0.18" stroke-width="2"/>

      <text x="98" y="2100" font-size="28" font-weight="750" fill="#222222" text-anchor="start"><tspan x="98" dy="0">命令 + Console</tspan></text>

    <rect x="98" y="2150" width="1056" height="294" rx="14" fill="#fdfdfd" stroke="#2f2f2f" stroke-width="2" />
    <path d="M 103 2437 C 393.68 2443, 868.88 2433, 1149 2439" fill="none" stroke="#2f2f2f" stroke-opacity="0.18" stroke-width="2"/>
  <rect x="98" y="2150" width="1056" height="42" rx="14" fill="#f0f0f5" stroke="#2f2f2f" stroke-width="2"/><rect x="98" y="2192" width="84" height="252" fill="#f5f5f7" stroke="#2f2f2f" stroke-width="2"/><text x="118" y="2178" font-size="18" font-weight="750" fill="#222222" text-anchor="start"><tspan x="118" dy="0">命令 + Console</tspan></text><text x="110" y="2228" font-size="14" font-weight="500" fill="#66645f" text-anchor="start"><tspan x="110" dy="0">任务导</tspan><tspan x="110" dy="20">航</tspan></text>
    <rect x="206" y="2216" width="924" height="76" rx="12" fill="#ffffff" stroke="#2f2f2f" stroke-width="2" />
    <path d="M 211 2285 C 464.72 2291, 880.52 2281, 1125 2287" fill="none" stroke="#2f2f2f" stroke-opacity="0.18" stroke-width="2"/>
  <text x="224" y="2246" font-size="17" font-weight="700" fill="#222222" text-anchor="start"><tspan x="224" dy="0">⌘K 搜索</tspan></text>
    <rect x="206" y="2320" width="450" height="102" rx="12" fill="#ffffff" stroke="#2f2f2f" stroke-width="2" />
    <path d="M 211 2415 C 332 2421, 534.5 2411, 651 2417" fill="none" stroke="#2f2f2f" stroke-opacity="0.18" stroke-width="2"/>

    <rect x="680" y="2320" width="450" height="102" rx="12" fill="#ffffff" stroke="#2f2f2f" stroke-width="2" />
    <path d="M 685 2415 C 806 2421, 1008.5 2411, 1125 2417" fill="none" stroke="#2f2f2f" stroke-opacity="0.18" stroke-width="2"/>
  <text x="224" y="2354" font-size="15" font-weight="500" fill="#222222" text-anchor="start"><tspan x="224" dy="0">底部诊断</tspan></text><text x="698" y="2354" font-size="15" font-weight="500" fill="#222222" text-anchor="start"><tspan x="698" dy="0">脱敏摘要</tspan></text>
    </g>
  </svg>