<?xml version="1.0" encoding="UTF-8"?>
  <svg xmlns="http://www.w3.org/2000/svg" width="2400" height="1928" viewBox="0 0 2400 1928">

  <defs>
    <marker id="arrow" viewBox="0 0 10 10" refX="8" refY="5" markerWidth="7" markerHeight="7" orient="auto-start-reverse">
      <path d="M 0 0 L 10 5 L 0 10 z" fill="#2f2f2f" />
    </marker>
    <filter id="paperShadow" x="-10%" y="-10%" width="120%" height="120%">
      <feDropShadow dx="0" dy="3" stdDeviation="3" flood-color="#000000" flood-opacity="0.12"/>
    </filter>
  </defs>
    <rect width="2400" height="1928" fill="#fbfaf7"/>
    <g opacity="0.55"><line x1="0" y1="0" x2="0" y2="1928" stroke="#ece8dd" stroke-width="1"/><line x1="48" y1="0" x2="48" y2="1928" stroke="#ece8dd" stroke-width="1"/><line x1="96" y1="0" x2="96" y2="1928" stroke="#ece8dd" stroke-width="1"/><line x1="144" y1="0" x2="144" y2="1928" stroke="#ece8dd" stroke-width="1"/><line x1="192" y1="0" x2="192" y2="1928" stroke="#ece8dd" stroke-width="1"/><line x1="240" y1="0" x2="240" y2="1928" stroke="#ece8dd" stroke-width="1"/><line x1="288" y1="0" x2="288" y2="1928" stroke="#ece8dd" stroke-width="1"/><line x1="336" y1="0" x2="336" y2="1928" stroke="#ece8dd" stroke-width="1"/><line x1="384" y1="0" x2="384" y2="1928" stroke="#ece8dd" stroke-width="1"/><line x1="432" y1="0" x2="432" y2="1928" stroke="#ece8dd" stroke-width="1"/><line x1="480" y1="0" x2="480" y2="1928" stroke="#ece8dd" stroke-width="1"/><line x1="528" y1="0" x2="528" y2="1928" stroke="#ece8dd" stroke-width="1"/><line x1="576" y1="0" x2="576" y2="1928" stroke="#ece8dd" stroke-width="1"/><line x1="624" y1="0" x2="624" y2="1928" stroke="#ece8dd" stroke-width="1"/><line x1="672" y1="0" x2="672" y2="1928" stroke="#ece8dd" stroke-width="1"/><line x1="720" y1="0" x2="720" y2="1928" stroke="#ece8dd" stroke-width="1"/><line x1="768" y1="0" x2="768" y2="1928" stroke="#ece8dd" stroke-width="1"/><line x1="816" y1="0" x2="816" y2="1928" stroke="#ece8dd" stroke-width="1"/><line x1="864" y1="0" x2="864" y2="1928" stroke="#ece8dd" stroke-width="1"/><line x1="912" y1="0" x2="912" y2="1928" stroke="#ece8dd" stroke-width="1"/><line x1="960" y1="0" x2="960" y2="1928" stroke="#ece8dd" stroke-width="1"/><line x1="1008" y1="0" x2="1008" y2="1928" stroke="#ece8dd" stroke-width="1"/><line x1="1056" y1="0" x2="1056" y2="1928" stroke="#ece8dd" stroke-width="1"/><line x1="1104" y1="0" x2="1104" y2="1928" stroke="#ece8dd" stroke-width="1"/><line x1="1152" y1="0" x2="1152" y2="1928" stroke="#ece8dd" stroke-width="1"/><line x1="1200" y1="0" x2="1200" y2="1928" stroke="#ece8dd" stroke-width="1"/><line x1="1248" y1="0" x2="1248" y2="1928" stroke="#ece8dd" stroke-width="1"/><line x1="1296" y1="0" x2="1296" y2="1928" stroke="#ece8dd" stroke-width="1"/><line x1="1344" y1="0" x2="1344" y2="1928" stroke="#ece8dd" stroke-width="1"/><line x1="1392" y1="0" x2="1392" y2="1928" stroke="#ece8dd" stroke-width="1"/><line x1="1440" y1="0" x2="1440" y2="1928" stroke="#ece8dd" stroke-width="1"/><line x1="1488" y1="0" x2="1488" y2="1928" stroke="#ece8dd" stroke-width="1"/><line x1="1536" y1="0" x2="1536" y2="1928" stroke="#ece8dd" stroke-width="1"/><line x1="1584" y1="0" x2="1584" y2="1928" stroke="#ece8dd" stroke-width="1"/><line x1="1632" y1="0" x2="1632" y2="1928" stroke="#ece8dd" stroke-width="1"/><line x1="1680" y1="0" x2="1680" y2="1928" stroke="#ece8dd" stroke-width="1"/><line x1="1728" y1="0" x2="1728" y2="1928" stroke="#ece8dd" stroke-width="1"/><line x1="1776" y1="0" x2="1776" y2="1928" stroke="#ece8dd" stroke-width="1"/><line x1="1824" y1="0" x2="1824" y2="1928" stroke="#ece8dd" stroke-width="1"/><line x1="1872" y1="0" x2="1872" y2="1928" stroke="#ece8dd" stroke-width="1"/><line x1="1920" y1="0" x2="1920" y2="1928" stroke="#ece8dd" stroke-width="1"/><line x1="1968" y1="0" x2="1968" y2="1928" stroke="#ece8dd" stroke-width="1"/><line x1="2016" y1="0" x2="2016" y2="1928" stroke="#ece8dd" stroke-width="1"/><line x1="2064" y1="0" x2="2064" y2="1928" stroke="#ece8dd" stroke-width="1"/><line x1="2112" y1="0" x2="2112" y2="1928" stroke="#ece8dd" stroke-width="1"/><line x1="2160" y1="0" x2="2160" y2="1928" stroke="#ece8dd" stroke-width="1"/><line x1="2208" y1="0" x2="2208" y2="1928" stroke="#ece8dd" stroke-width="1"/><line x1="2256" y1="0" x2="2256" y2="1928" stroke="#ece8dd" stroke-width="1"/><line x1="2304" y1="0" x2="2304" y2="1928" stroke="#ece8dd" stroke-width="1"/><line x1="2352" y1="0" x2="2352" y2="1928" stroke="#ece8dd" stroke-width="1"/><line x1="2400" y1="0" x2="2400" y2="1928" stroke="#ece8dd" stroke-width="1"/><line x1="0" y1="0" x2="2400" y2="0" stroke="#ece8dd" stroke-width="1"/><line x1="0" y1="48" x2="2400" y2="48" stroke="#ece8dd" stroke-width="1"/><line x1="0" y1="96" x2="2400" y2="96" stroke="#ece8dd" stroke-width="1"/><line x1="0" y1="144" x2="2400" y2="144" stroke="#ece8dd" stroke-width="1"/><line x1="0" y1="192" x2="2400" y2="192" stroke="#ece8dd" stroke-width="1"/><line x1="0" y1="240" x2="2400" y2="240" stroke="#ece8dd" stroke-width="1"/><line x1="0" y1="288" x2="2400" y2="288" stroke="#ece8dd" stroke-width="1"/><line x1="0" y1="336" x2="2400" y2="336" stroke="#ece8dd" stroke-width="1"/><line x1="0" y1="384" x2="2400" y2="384" stroke="#ece8dd" stroke-width="1"/><line x1="0" y1="432" x2="2400" y2="432" stroke="#ece8dd" stroke-width="1"/><line x1="0" y1="480" x2="2400" y2="480" stroke="#ece8dd" stroke-width="1"/><line x1="0" y1="528" x2="2400" y2="528" stroke="#ece8dd" stroke-width="1"/><line x1="0" y1="576" x2="2400" y2="576" stroke="#ece8dd" stroke-width="1"/><line x1="0" y1="624" x2="2400" y2="624" stroke="#ece8dd" stroke-width="1"/><line x1="0" y1="672" x2="2400" y2="672" stroke="#ece8dd" stroke-width="1"/><line x1="0" y1="720" x2="2400" y2="720" stroke="#ece8dd" stroke-width="1"/><line x1="0" y1="768" x2="2400" y2="768" stroke="#ece8dd" stroke-width="1"/><line x1="0" y1="816" x2="2400" y2="816" stroke="#ece8dd" stroke-width="1"/><line x1="0" y1="864" x2="2400" y2="864" stroke="#ece8dd" stroke-width="1"/><line x1="0" y1="912" x2="2400" y2="912" stroke="#ece8dd" stroke-width="1"/><line x1="0" y1="960" x2="2400" y2="960" stroke="#ece8dd" stroke-width="1"/><line x1="0" y1="1008" x2="2400" y2="1008" stroke="#ece8dd" stroke-width="1"/><line x1="0" y1="1056" x2="2400" y2="1056" stroke="#ece8dd" stroke-width="1"/><line x1="0" y1="1104" x2="2400" y2="1104" stroke="#ece8dd" stroke-width="1"/><line x1="0" y1="1152" x2="2400" y2="1152" stroke="#ece8dd" stroke-width="1"/><line x1="0" y1="1200" x2="2400" y2="1200" stroke="#ece8dd" stroke-width="1"/><line x1="0" y1="1248" x2="2400" y2="1248" stroke="#ece8dd" stroke-width="1"/><line x1="0" y1="1296" x2="2400" y2="1296" stroke="#ece8dd" stroke-width="1"/><line x1="0" y1="1344" x2="2400" y2="1344" stroke="#ece8dd" stroke-width="1"/><line x1="0" y1="1392" x2="2400" y2="1392" stroke="#ece8dd" stroke-width="1"/><line x1="0" y1="1440" x2="2400" y2="1440" stroke="#ece8dd" stroke-width="1"/><line x1="0" y1="1488" x2="2400" y2="1488" stroke="#ece8dd" stroke-width="1"/><line x1="0" y1="1536" x2="2400" y2="1536" stroke="#ece8dd" stroke-width="1"/><line x1="0" y1="1584" x2="2400" y2="1584" stroke="#ece8dd" stroke-width="1"/><line x1="0" y1="1632" x2="2400" y2="1632" stroke="#ece8dd" stroke-width="1"/><line x1="0" y1="1680" x2="2400" y2="1680" stroke="#ece8dd" stroke-width="1"/><line x1="0" y1="1728" x2="2400" y2="1728" stroke="#ece8dd" stroke-width="1"/><line x1="0" y1="1776" x2="2400" y2="1776" stroke="#ece8dd" stroke-width="1"/><line x1="0" y1="1824" x2="2400" y2="1824" stroke="#ece8dd" stroke-width="1"/><line x1="0" y1="1872" x2="2400" y2="1872" stroke="#ece8dd" stroke-width="1"/><line x1="0" y1="1920" x2="2400" y2="1920" stroke="#ece8dd" stroke-width="1"/></g>
    <text x="70" y="86" font-size="48" font-weight="800" fill="#222222" text-anchor="start"><tspan x="70" dy="0">V3.0 时序图专项图片</tspan></text>
    <text x="70" y="132" font-size="24" font-weight="500" fill="#66645f" text-anchor="start"><tspan x="70" dy="0">覆盖连接设备、创建目标、录制生成、Tap Target、低置信暂停、结果查看、日志性能采样。</tspan></text>
    <text x="2330" y="86" font-size="22" font-weight="500" fill="#66645f" text-anchor="end"><tspan x="2330" dy="0">完整性: 7 个面板</tspan></text>

    <g>

    <rect x="70" y="190" width="1112" height="380" rx="18" fill="#ffffff" stroke="#2f2f2f" stroke-width="3" />
    <path d="M 75 563 C 381.36 569, 881.76 559, 1177 565" fill="none" stroke="#2f2f2f" stroke-opacity="0.18" stroke-width="2"/>

      <text x="98" y="236" font-size="28" font-weight="750" fill="#222222" text-anchor="start"><tspan x="98" dy="0">1. 连接当前设备</tspan></text>

    <rect x="98" y="294" width="132" height="74" rx="14" fill="#f7f7fb" stroke="#2f2f2f" stroke-width="2" />
    <path d="M 103 361 C 134.96 367, 194.36 357, 225 363" fill="none" stroke="#2f2f2f" stroke-opacity="0.18" stroke-width="2"/>
  <text x="164" y="326" font-size="18" font-weight="650" fill="#222222" text-anchor="middle"><tspan x="164" dy="0">用户</tspan></text>
    <line x1="234" y1="331" x2="244" y2="331" stroke="#2f2f2f" stroke-width="3" marker-end="url(#arrow)"/>


    <rect x="252" y="294" width="132" height="74" rx="14" fill="#f7f7fb" stroke="#2f2f2f" stroke-width="2" />
    <path d="M 257 361 C 288.96 367, 348.36 357, 379 363" fill="none" stroke="#2f2f2f" stroke-opacity="0.18" stroke-width="2"/>
  <text x="318" y="326" font-size="18" font-weight="650" fill="#222222" text-anchor="middle"><tspan x="318" dy="0">Flutter UI</tspan></text>
    <line x1="388" y1="331" x2="398" y2="331" stroke="#2f2f2f" stroke-width="3" marker-end="url(#arrow)"/>


    <rect x="406" y="294" width="132" height="74" rx="14" fill="#f7f7fb" stroke="#2f2f2f" stroke-width="2" />
    <path d="M 411 361 C 442.96 367, 502.36 357, 533 363" fill="none" stroke="#2f2f2f" stroke-opacity="0.18" stroke-width="2"/>
  <text x="472" y="326" font-size="18" font-weight="650" fill="#222222" text-anchor="middle"><tspan x="472" dy="0">Runtime</tspan></text>
    <line x1="542" y1="331" x2="552" y2="331" stroke="#2f2f2f" stroke-width="3" marker-end="url(#arrow)"/>


    <rect x="560" y="294" width="132" height="74" rx="14" fill="#f7f7fb" stroke="#2f2f2f" stroke-width="2" />
    <path d="M 565 361 C 596.96 367, 656.36 357, 687 363" fill="none" stroke="#2f2f2f" stroke-opacity="0.18" stroke-width="2"/>
  <text x="626" y="326" font-size="18" font-weight="650" fill="#222222" text-anchor="middle"><tspan x="626" dy="0">Driver</tspan></text>
    <line x1="696" y1="331" x2="706" y2="331" stroke="#2f2f2f" stroke-width="3" marker-end="url(#arrow)"/>


    <rect x="714" y="294" width="132" height="74" rx="14" fill="#f7f7fb" stroke="#2f2f2f" stroke-width="2" />
    <path d="M 719 361 C 750.96 367, 810.36 357, 841 363" fill="none" stroke="#2f2f2f" stroke-opacity="0.18" stroke-width="2"/>
  <text x="780" y="326" font-size="18" font-weight="650" fill="#222222" text-anchor="middle"><tspan x="780" dy="0">Adapter</tspan></text>
    <line x1="850" y1="331" x2="860" y2="331" stroke="#2f2f2f" stroke-width="3" marker-end="url(#arrow)"/>


    <rect x="868" y="294" width="132" height="74" rx="14" fill="#f7f7fb" stroke="#2f2f2f" stroke-width="2" />
    <path d="M 873 361 C 904.96 367, 964.36 357, 995 363" fill="none" stroke="#2f2f2f" stroke-opacity="0.18" stroke-width="2"/>
  <text x="934" y="326" font-size="18" font-weight="650" fill="#222222" text-anchor="middle"><tspan x="934" dy="0">设备</tspan></text>
    <line x1="1004" y1="331" x2="1014" y2="331" stroke="#2f2f2f" stroke-width="3" marker-end="url(#arrow)"/>


    <rect x="1022" y="294" width="132" height="74" rx="14" fill="#f7f7fb" stroke="#2f2f2f" stroke-width="2" />
    <path d="M 1027 361 C 1058.96 367, 1118.36 357, 1149 363" fill="none" stroke="#2f2f2f" stroke-opacity="0.18" stroke-width="2"/>
  <text x="1088" y="326" font-size="18" font-weight="650" fill="#222222" text-anchor="middle"><tspan x="1088" dy="0">Snapshot</tspan></text><circle cx="98" cy="405" r="5" fill="#0a84ff"/><text x="116" y="412" font-size="19" font-weight="500" fill="#222222" text-anchor="start"><tspan x="116" dy="0">点击连接设备</tspan></text><circle cx="98" cy="436" r="5" fill="#0a84ff"/><text x="116" y="443" font-size="19" font-weight="500" fill="#222222" text-anchor="start"><tspan x="116" dy="0">自动识别 iOS 或 Android</tspan></text><circle cx="98" cy="467" r="5" fill="#0a84ff"/><text x="116" y="474" font-size="19" font-weight="500" fill="#222222" text-anchor="start"><tspan x="116" dy="0">写入脱敏设备摘要和截图</tspan></text>
    </g>

    <g>

    <rect x="1218" y="190" width="1112" height="380" rx="18" fill="#ffffff" stroke="#2f2f2f" stroke-width="3" />
    <path d="M 1223 563 C 1529.3600000000001 569, 2029.76 559, 2325 565" fill="none" stroke="#2f2f2f" stroke-opacity="0.18" stroke-width="2"/>

      <text x="1246" y="236" font-size="28" font-weight="750" fill="#222222" text-anchor="start"><tspan x="1246" dy="0">2. 从预览创建目标</tspan></text>

    <rect x="1246" y="294" width="152" height="74" rx="14" fill="#f7f7fb" stroke="#2f2f2f" stroke-width="2" />
    <path d="M 1251 361 C 1288.56 367, 1356.96 357, 1393 363" fill="none" stroke="#2f2f2f" stroke-opacity="0.18" stroke-width="2"/>
  <text x="1322" y="326" font-size="18" font-weight="650" fill="#222222" text-anchor="middle"><tspan x="1322" dy="0">用户</tspan></text>
    <line x1="1402" y1="331" x2="1418" y2="331" stroke="#2f2f2f" stroke-width="3" marker-end="url(#arrow)"/>


    <rect x="1426" y="294" width="152" height="74" rx="14" fill="#f7f7fb" stroke="#2f2f2f" stroke-width="2" />
    <path d="M 1431 361 C 1468.56 367, 1536.96 357, 1573 363" fill="none" stroke="#2f2f2f" stroke-opacity="0.18" stroke-width="2"/>
  <text x="1502" y="326" font-size="18" font-weight="650" fill="#222222" text-anchor="middle"><tspan x="1502" dy="0">预览</tspan></text>
    <line x1="1582" y1="331" x2="1598" y2="331" stroke="#2f2f2f" stroke-width="3" marker-end="url(#arrow)"/>


    <rect x="1606" y="294" width="152" height="74" rx="14" fill="#f7f7fb" stroke="#2f2f2f" stroke-width="2" />
    <path d="M 1611 361 C 1648.56 367, 1716.96 357, 1753 363" fill="none" stroke="#2f2f2f" stroke-opacity="0.18" stroke-width="2"/>
  <text x="1682" y="326" font-size="18" font-weight="650" fill="#222222" text-anchor="middle"><tspan x="1682" dy="0">草稿</tspan></text>
    <line x1="1762" y1="331" x2="1778" y2="331" stroke="#2f2f2f" stroke-width="3" marker-end="url(#arrow)"/>


    <rect x="1786" y="294" width="152" height="74" rx="14" fill="#f7f7fb" stroke="#2f2f2f" stroke-width="2" />
    <path d="M 1791 361 C 1828.56 367, 1896.96 357, 1933 363" fill="none" stroke="#2f2f2f" stroke-opacity="0.18" stroke-width="2"/>
  <text x="1862" y="326" font-size="18" font-weight="650" fill="#222222" text-anchor="middle"><tspan x="1862" dy="0">Inspector</tspan></text>
    <line x1="1942" y1="331" x2="1958" y2="331" stroke="#2f2f2f" stroke-width="3" marker-end="url(#arrow)"/>


    <rect x="1966" y="294" width="152" height="74" rx="14" fill="#f7f7fb" stroke="#2f2f2f" stroke-width="2" />
    <path d="M 1971 361 C 2008.56 367, 2076.96 357, 2113 363" fill="none" stroke="#2f2f2f" stroke-opacity="0.18" stroke-width="2"/>
  <text x="2042" y="326" font-size="18" font-weight="650" fill="#222222" text-anchor="middle"><tspan x="2042" dy="0">Validator</tspan></text>
    <line x1="2122" y1="331" x2="2138" y2="331" stroke="#2f2f2f" stroke-width="3" marker-end="url(#arrow)"/>


    <rect x="2146" y="294" width="152" height="74" rx="14" fill="#f7f7fb" stroke="#2f2f2f" stroke-width="2" />
    <path d="M 2151 361 C 2188.56 367, 2256.96 357, 2293 363" fill="none" stroke="#2f2f2f" stroke-opacity="0.18" stroke-width="2"/>
  <text x="2222" y="326" font-size="18" font-weight="650" fill="#222222" text-anchor="middle"><tspan x="2222" dy="0">Target Store</tspan></text><circle cx="1246" cy="405" r="5" fill="#0a84ff"/><text x="1264" y="412" font-size="19" font-weight="500" fill="#222222" text-anchor="start"><tspan x="1264" dy="0">请求 targetCapture 资源锁</tspan></text><circle cx="1246" cy="436" r="5" fill="#0a84ff"/><text x="1264" y="443" font-size="19" font-weight="500" fill="#222222" text-anchor="start"><tspan x="1264" dy="0">点选或框选画面</tspan></text><circle cx="1246" cy="467" r="5" fill="#0a84ff"/><text x="1264" y="474" font-size="19" font-weight="500" fill="#222222" text-anchor="start"><tspan x="1264" dy="0">保存前校验平台能力</tspan></text>
    </g>

    <g>

    <rect x="70" y="606" width="1112" height="400" rx="18" fill="#ffffff" stroke="#2f2f2f" stroke-width="3" />
    <path d="M 75 999 C 381.36 1005, 881.76 995, 1177 1001" fill="none" stroke="#2f2f2f" stroke-opacity="0.18" stroke-width="2"/>

      <text x="98" y="652" font-size="28" font-weight="750" fill="#222222" text-anchor="start"><tspan x="98" dy="0">3. 录制并生成流程</tspan></text>

    <rect x="98" y="710" width="152" height="74" rx="14" fill="#f7f7fb" stroke="#2f2f2f" stroke-width="2" />
    <path d="M 103 777 C 140.56 783, 208.95999999999998 773, 245 779" fill="none" stroke="#2f2f2f" stroke-opacity="0.18" stroke-width="2"/>
  <text x="174" y="742" font-size="18" font-weight="650" fill="#222222" text-anchor="middle"><tspan x="174" dy="0">用户</tspan></text>
    <line x1="254" y1="747" x2="270" y2="747" stroke="#2f2f2f" stroke-width="3" marker-end="url(#arrow)"/>


    <rect x="278" y="710" width="152" height="74" rx="14" fill="#f7f7fb" stroke="#2f2f2f" stroke-width="2" />
    <path d="M 283 777 C 320.56 783, 388.96 773, 425 779" fill="none" stroke="#2f2f2f" stroke-opacity="0.18" stroke-width="2"/>
  <text x="354" y="742" font-size="18" font-weight="650" fill="#222222" text-anchor="middle"><tspan x="354" dy="0">Recorder</tspan></text>
    <line x1="434" y1="747" x2="450" y2="747" stroke="#2f2f2f" stroke-width="3" marker-end="url(#arrow)"/>


    <rect x="458" y="710" width="152" height="74" rx="14" fill="#f7f7fb" stroke="#2f2f2f" stroke-width="2" />
    <path d="M 463 777 C 500.56 783, 568.96 773, 605 779" fill="none" stroke="#2f2f2f" stroke-opacity="0.18" stroke-width="2"/>
  <text x="534" y="742" font-size="18" font-weight="650" fill="#222222" text-anchor="middle"><tspan x="534" dy="0">Timeline</tspan></text>
    <line x1="614" y1="747" x2="630" y2="747" stroke="#2f2f2f" stroke-width="3" marker-end="url(#arrow)"/>


    <rect x="638" y="710" width="152" height="74" rx="14" fill="#f7f7fb" stroke="#2f2f2f" stroke-width="2" />
    <path d="M 643 777 C 680.56 783, 748.96 773, 785 779" fill="none" stroke="#2f2f2f" stroke-opacity="0.18" stroke-width="2"/>
  <text x="714" y="742" font-size="18" font-weight="650" fill="#222222" text-anchor="middle"><tspan x="714" dy="0">Runtime</tspan></text>
    <line x1="794" y1="747" x2="810" y2="747" stroke="#2f2f2f" stroke-width="3" marker-end="url(#arrow)"/>


    <rect x="818" y="710" width="152" height="74" rx="14" fill="#f7f7fb" stroke="#2f2f2f" stroke-width="2" />
    <path d="M 823 777 C 860.56 783, 928.96 773, 965 779" fill="none" stroke="#2f2f2f" stroke-opacity="0.18" stroke-width="2"/>
  <text x="894" y="742" font-size="18" font-weight="650" fill="#222222" text-anchor="middle"><tspan x="894" dy="0">DSL</tspan></text>
    <line x1="974" y1="747" x2="990" y2="747" stroke="#2f2f2f" stroke-width="3" marker-end="url(#arrow)"/>


    <rect x="998" y="710" width="152" height="74" rx="14" fill="#f7f7fb" stroke="#2f2f2f" stroke-width="2" />
    <path d="M 1003 777 C 1040.56 783, 1108.96 773, 1145 779" fill="none" stroke="#2f2f2f" stroke-opacity="0.18" stroke-width="2"/>
  <text x="1074" y="742" font-size="18" font-weight="650" fill="#222222" text-anchor="middle"><tspan x="1074" dy="0">Store</tspan></text><circle cx="98" cy="821" r="5" fill="#0a84ff"/><text x="116" y="828" font-size="19" font-weight="500" fill="#222222" text-anchor="start"><tspan x="116" dy="0">动作以 Target + Action 展示</tspan></text><circle cx="98" cy="852" r="5" fill="#0a84ff"/><text x="116" y="859" font-size="19" font-weight="500" fill="#222222" text-anchor="start"><tspan x="116" dy="0">生成 Project DSL</tspan></text><circle cx="98" cy="883" r="5" fill="#0a84ff"/><text x="116" y="890" font-size="19" font-weight="500" fill="#222222" text-anchor="start"><tspan x="116" dy="0">validator 通过后保存当前流程</tspan></text>
    </g>

    <g>

    <rect x="1218" y="606" width="1112" height="400" rx="18" fill="#ffffff" stroke="#2f2f2f" stroke-width="3" />
    <path d="M 1223 999 C 1529.3600000000001 1005, 2029.76 995, 2325 1001" fill="none" stroke="#2f2f2f" stroke-opacity="0.18" stroke-width="2"/>

      <text x="1246" y="652" font-size="28" font-weight="750" fill="#222222" text-anchor="start"><tspan x="1246" dy="0">4. 执行 Tap Target</tspan></text>

    <rect x="1246" y="710" width="132" height="74" rx="14" fill="#f7f7fb" stroke="#2f2f2f" stroke-width="2" />
    <path d="M 1251 777 C 1282.96 783, 1342.36 773, 1373 779" fill="none" stroke="#2f2f2f" stroke-opacity="0.18" stroke-width="2"/>
  <text x="1312" y="742" font-size="18" font-weight="650" fill="#222222" text-anchor="middle"><tspan x="1312" dy="0">Execute</tspan></text>
    <line x1="1382" y1="747" x2="1392" y2="747" stroke="#2f2f2f" stroke-width="3" marker-end="url(#arrow)"/>


    <rect x="1400" y="710" width="132" height="74" rx="14" fill="#f7f7fb" stroke="#2f2f2f" stroke-width="2" />
    <path d="M 1405 777 C 1436.96 783, 1496.36 773, 1527 779" fill="none" stroke="#2f2f2f" stroke-opacity="0.18" stroke-width="2"/>
  <text x="1466" y="742" font-size="18" font-weight="650" fill="#222222" text-anchor="middle"><tspan x="1466" dy="0">Runtime</tspan></text>
    <line x1="1536" y1="747" x2="1546" y2="747" stroke="#2f2f2f" stroke-width="3" marker-end="url(#arrow)"/>


    <rect x="1554" y="710" width="132" height="74" rx="14" fill="#f7f7fb" stroke="#2f2f2f" stroke-width="2" />
    <path d="M 1559 777 C 1590.96 783, 1650.36 773, 1681 779" fill="none" stroke="#2f2f2f" stroke-opacity="0.18" stroke-width="2"/>
  <text x="1620" y="742" font-size="18" font-weight="650" fill="#222222" text-anchor="middle"><tspan x="1620" dy="0">Runner</tspan></text>
    <line x1="1690" y1="747" x2="1700" y2="747" stroke="#2f2f2f" stroke-width="3" marker-end="url(#arrow)"/>


    <rect x="1708" y="710" width="132" height="74" rx="14" fill="#f7f7fb" stroke="#2f2f2f" stroke-width="2" />
    <path d="M 1713 777 C 1744.96 783, 1804.36 773, 1835 779" fill="none" stroke="#2f2f2f" stroke-opacity="0.18" stroke-width="2"/>
  <text x="1774" y="742" font-size="18" font-weight="650" fill="#222222" text-anchor="middle"><tspan x="1774" dy="0">Resolver</tspan></text>
    <line x1="1844" y1="747" x2="1854" y2="747" stroke="#2f2f2f" stroke-width="3" marker-end="url(#arrow)"/>


    <rect x="1862" y="710" width="132" height="74" rx="14" fill="#f7f7fb" stroke="#2f2f2f" stroke-width="2" />
    <path d="M 1867 777 C 1898.96 783, 1958.36 773, 1989 779" fill="none" stroke="#2f2f2f" stroke-opacity="0.18" stroke-width="2"/>
  <text x="1928" y="742" font-size="18" font-weight="650" fill="#222222" text-anchor="middle"><tspan x="1928" dy="0">Driver</tspan></text>
    <line x1="1998" y1="747" x2="2008" y2="747" stroke="#2f2f2f" stroke-width="3" marker-end="url(#arrow)"/>


    <rect x="2016" y="710" width="132" height="74" rx="14" fill="#f7f7fb" stroke="#2f2f2f" stroke-width="2" />
    <path d="M 2021 777 C 2052.96 783, 2112.36 773, 2143 779" fill="none" stroke="#2f2f2f" stroke-opacity="0.18" stroke-width="2"/>
  <text x="2082" y="742" font-size="18" font-weight="650" fill="#222222" text-anchor="middle"><tspan x="2082" dy="0">Device</tspan></text>
    <line x1="2152" y1="747" x2="2162" y2="747" stroke="#2f2f2f" stroke-width="3" marker-end="url(#arrow)"/>


    <rect x="2170" y="710" width="132" height="74" rx="14" fill="#f7f7fb" stroke="#2f2f2f" stroke-width="2" />
    <path d="M 2175 777 C 2206.96 783, 2266.36 773, 2297 779" fill="none" stroke="#2f2f2f" stroke-opacity="0.18" stroke-width="2"/>
  <text x="2236" y="742" font-size="18" font-weight="650" fill="#222222" text-anchor="middle"><tspan x="2236" dy="0">Evidence</tspan></text><circle cx="1246" cy="831" r="5" fill="#0a84ff"/><text x="1264" y="838" font-size="19" font-weight="500" fill="#222222" text-anchor="start"><tspan x="1264" dy="0">预检通过后确认运行</tspan></text><circle cx="1246" cy="862" r="5" fill="#0a84ff"/><text x="1264" y="869" font-size="19" font-weight="500" fill="#222222" text-anchor="start"><tspan x="1264" dy="0">解析目标后才点击</tspan></text><circle cx="1246" cy="893" r="5" fill="#0a84ff"/><text x="1264" y="900" font-size="19" font-weight="500" fill="#222222" text-anchor="start"><tspan x="1264" dy="0">写入目标解析和动作事件</tspan></text>
    </g>

    <g>

    <rect x="70" y="1042" width="1112" height="400" rx="18" fill="#ffffff" stroke="#2f2f2f" stroke-width="3" />
    <path d="M 75 1435 C 381.36 1441, 881.76 1431, 1177 1437" fill="none" stroke="#2f2f2f" stroke-opacity="0.18" stroke-width="2"/>

      <text x="98" y="1088" font-size="28" font-weight="750" fill="#222222" text-anchor="start"><tspan x="98" dy="0">5. 低置信暂停介入</tspan></text>

    <rect x="98" y="1146" width="132" height="74" rx="14" fill="#f7f7fb" stroke="#2f2f2f" stroke-width="2" />
    <path d="M 103 1213 C 134.96 1219, 194.36 1209, 225 1215" fill="none" stroke="#2f2f2f" stroke-opacity="0.18" stroke-width="2"/>
  <text x="164" y="1178" font-size="18" font-weight="650" fill="#222222" text-anchor="middle"><tspan x="164" dy="0">Resolver</tspan></text>
    <line x1="234" y1="1183" x2="244" y2="1183" stroke="#2f2f2f" stroke-width="3" marker-end="url(#arrow)"/>


    <rect x="252" y="1146" width="132" height="74" rx="14" fill="#f7f7fb" stroke="#2f2f2f" stroke-width="2" />
    <path d="M 257 1213 C 288.96 1219, 348.36 1209, 379 1215" fill="none" stroke="#2f2f2f" stroke-opacity="0.18" stroke-width="2"/>
  <text x="318" y="1178" font-size="18" font-weight="650" fill="#222222" text-anchor="middle"><tspan x="318" dy="0">Runtime</tspan></text>
    <line x1="388" y1="1183" x2="398" y2="1183" stroke="#2f2f2f" stroke-width="3" marker-end="url(#arrow)"/>


    <rect x="406" y="1146" width="132" height="74" rx="14" fill="#f7f7fb" stroke="#2f2f2f" stroke-width="2" />
    <path d="M 411 1213 C 442.96 1219, 502.36 1209, 533 1215" fill="none" stroke="#2f2f2f" stroke-opacity="0.18" stroke-width="2"/>
  <text x="472" y="1178" font-size="18" font-weight="650" fill="#222222" text-anchor="middle"><tspan x="472" dy="0">Execute</tspan></text>
    <line x1="542" y1="1183" x2="552" y2="1183" stroke="#2f2f2f" stroke-width="3" marker-end="url(#arrow)"/>


    <rect x="560" y="1146" width="132" height="74" rx="14" fill="#f7f7fb" stroke="#2f2f2f" stroke-width="2" />
    <path d="M 565 1213 C 596.96 1219, 656.36 1209, 687 1215" fill="none" stroke="#2f2f2f" stroke-opacity="0.18" stroke-width="2"/>
  <text x="626" y="1178" font-size="18" font-weight="650" fill="#222222" text-anchor="middle"><tspan x="626" dy="0">用户</tspan></text>
    <line x1="696" y1="1183" x2="706" y2="1183" stroke="#2f2f2f" stroke-width="3" marker-end="url(#arrow)"/>


    <rect x="714" y="1146" width="132" height="74" rx="14" fill="#f7f7fb" stroke="#2f2f2f" stroke-width="2" />
    <path d="M 719 1213 C 750.96 1219, 810.36 1209, 841 1215" fill="none" stroke="#2f2f2f" stroke-opacity="0.18" stroke-width="2"/>
  <text x="780" y="1178" font-size="18" font-weight="650" fill="#222222" text-anchor="middle"><tspan x="780" dy="0">Device</tspan></text>
    <line x1="850" y1="1183" x2="860" y2="1183" stroke="#2f2f2f" stroke-width="3" marker-end="url(#arrow)"/>


    <rect x="868" y="1146" width="132" height="74" rx="14" fill="#f7f7fb" stroke="#2f2f2f" stroke-width="2" />
    <path d="M 873 1213 C 904.96 1219, 964.36 1209, 995 1215" fill="none" stroke="#2f2f2f" stroke-opacity="0.18" stroke-width="2"/>
  <text x="934" y="1178" font-size="18" font-weight="650" fill="#222222" text-anchor="middle"><tspan x="934" dy="0">Inspector</tspan></text>
    <line x1="1004" y1="1183" x2="1014" y2="1183" stroke="#2f2f2f" stroke-width="3" marker-end="url(#arrow)"/>


    <rect x="1022" y="1146" width="132" height="74" rx="14" fill="#f7f7fb" stroke="#2f2f2f" stroke-width="2" />
    <path d="M 1027 1213 C 1058.96 1219, 1118.36 1209, 1149 1215" fill="none" stroke="#2f2f2f" stroke-opacity="0.18" stroke-width="2"/>
  <text x="1088" y="1178" font-size="18" font-weight="650" fill="#222222" text-anchor="middle"><tspan x="1088" dy="0">收口</tspan></text><circle cx="98" cy="1267" r="5" fill="#0a84ff"/><text x="116" y="1274" font-size="19" font-weight="500" fill="#222222" text-anchor="start"><tspan x="116" dy="0">低置信不盲点</tspan></text><circle cx="98" cy="1298" r="5" fill="#0a84ff"/><text x="116" y="1305" font-size="19" font-weight="500" fill="#222222" text-anchor="start"><tspan x="116" dy="0">用户查看现场并更新目标</tspan></text><circle cx="98" cy="1329" r="5" fill="#0a84ff"/><text x="116" y="1336" font-size="19" font-weight="500" fill="#222222" text-anchor="start"><tspan x="116" dy="0">resolvePause 回到可操作状态</tspan></text>
    </g>

    <g>

    <rect x="1218" y="1042" width="1112" height="400" rx="18" fill="#ffffff" stroke="#2f2f2f" stroke-width="3" />
    <path d="M 1223 1435 C 1529.3600000000001 1441, 2029.76 1431, 2325 1437" fill="none" stroke="#2f2f2f" stroke-opacity="0.18" stroke-width="2"/>

      <text x="1246" y="1088" font-size="28" font-weight="750" fill="#222222" text-anchor="start"><tspan x="1246" dy="0">6. Monitor 查看详情</tspan></text>

    <rect x="1246" y="1146" width="152" height="74" rx="14" fill="#f7f7fb" stroke="#2f2f2f" stroke-width="2" />
    <path d="M 1251 1213 C 1288.56 1219, 1356.96 1209, 1393 1215" fill="none" stroke="#2f2f2f" stroke-opacity="0.18" stroke-width="2"/>
  <text x="1322" y="1178" font-size="18" font-weight="650" fill="#222222" text-anchor="middle"><tspan x="1322" dy="0">用户</tspan></text>
    <line x1="1402" y1="1183" x2="1418" y2="1183" stroke="#2f2f2f" stroke-width="3" marker-end="url(#arrow)"/>


    <rect x="1426" y="1146" width="152" height="74" rx="14" fill="#f7f7fb" stroke="#2f2f2f" stroke-width="2" />
    <path d="M 1431 1213 C 1468.56 1219, 1536.96 1209, 1573 1215" fill="none" stroke="#2f2f2f" stroke-opacity="0.18" stroke-width="2"/>
  <text x="1502" y="1178" font-size="18" font-weight="650" fill="#222222" text-anchor="middle"><tspan x="1502" dy="0">Monitor</tspan></text>
    <line x1="1582" y1="1183" x2="1598" y2="1183" stroke="#2f2f2f" stroke-width="3" marker-end="url(#arrow)"/>


    <rect x="1606" y="1146" width="152" height="74" rx="14" fill="#f7f7fb" stroke="#2f2f2f" stroke-width="2" />
    <path d="M 1611 1213 C 1648.56 1219, 1716.96 1209, 1753 1215" fill="none" stroke="#2f2f2f" stroke-opacity="0.18" stroke-width="2"/>
  <text x="1682" y="1178" font-size="18" font-weight="650" fill="#222222" text-anchor="middle"><tspan x="1682" dy="0">Evidence API</tspan></text>
    <line x1="1762" y1="1183" x2="1778" y2="1183" stroke="#2f2f2f" stroke-width="3" marker-end="url(#arrow)"/>


    <rect x="1786" y="1146" width="152" height="74" rx="14" fill="#f7f7fb" stroke="#2f2f2f" stroke-width="2" />
    <path d="M 1791 1213 C 1828.56 1219, 1896.96 1209, 1933 1215" fill="none" stroke="#2f2f2f" stroke-opacity="0.18" stroke-width="2"/>
  <text x="1862" y="1178" font-size="18" font-weight="650" fill="#222222" text-anchor="middle"><tspan x="1862" dy="0">Store</tspan></text>
    <line x1="1942" y1="1183" x2="1958" y2="1183" stroke="#2f2f2f" stroke-width="3" marker-end="url(#arrow)"/>


    <rect x="1966" y="1146" width="152" height="74" rx="14" fill="#f7f7fb" stroke="#2f2f2f" stroke-width="2" />
    <path d="M 1971 1213 C 2008.56 1219, 2076.96 1209, 2113 1215" fill="none" stroke="#2f2f2f" stroke-opacity="0.18" stroke-width="2"/>
  <text x="2042" y="1178" font-size="18" font-weight="650" fill="#222222" text-anchor="middle"><tspan x="2042" dy="0">Run Detail</tspan></text>
    <line x1="2122" y1="1183" x2="2138" y2="1183" stroke="#2f2f2f" stroke-width="3" marker-end="url(#arrow)"/>


    <rect x="2146" y="1146" width="152" height="74" rx="14" fill="#f7f7fb" stroke="#2f2f2f" stroke-width="2" />
    <path d="M 2151 1213 C 2188.56 1219, 2256.96 1209, 2293 1215" fill="none" stroke="#2f2f2f" stroke-opacity="0.18" stroke-width="2"/>
  <text x="2222" y="1178" font-size="18" font-weight="650" fill="#222222" text-anchor="middle"><tspan x="2222" dy="0">修复入口</tspan></text><circle cx="1246" cy="1257" r="5" fill="#0a84ff"/><text x="1264" y="1264" font-size="19" font-weight="500" fill="#222222" text-anchor="start"><tspan x="1264" dy="0">读取本地证据</tspan></text><circle cx="1246" cy="1288" r="5" fill="#0a84ff"/><text x="1264" y="1295" font-size="19" font-weight="500" fill="#222222" text-anchor="start"><tspan x="1264" dy="0">分开展示任务状态、用例结果和问题类型</tspan></text><circle cx="1246" cy="1319" r="5" fill="#0a84ff"/><text x="1264" y="1326" font-size="19" font-weight="500" fill="#222222" text-anchor="start"><tspan x="1264" dy="0">可跳回目标或流程</tspan></text>
    </g>

    <g>

    <rect x="70" y="1478" width="1112" height="380" rx="18" fill="#ffffff" stroke="#2f2f2f" stroke-width="3" />
    <path d="M 75 1851 C 381.36 1857, 881.76 1847, 1177 1853" fill="none" stroke="#2f2f2f" stroke-opacity="0.18" stroke-width="2"/>

      <text x="98" y="1524" font-size="28" font-weight="750" fill="#222222" text-anchor="start"><tspan x="98" dy="0">7. 日志和性能采样</tspan></text>

    <rect x="98" y="1582" width="188" height="74" rx="14" fill="#f7f7fb" stroke="#2f2f2f" stroke-width="2" />
    <path d="M 103 1649 C 150.64000000000001 1655, 235.24 1645, 281 1651" fill="none" stroke="#2f2f2f" stroke-opacity="0.18" stroke-width="2"/>
  <text x="192" y="1614" font-size="18" font-weight="650" fill="#222222" text-anchor="middle"><tspan x="192" dy="0">Runner</tspan></text>
    <line x1="290" y1="1619" x2="307" y2="1619" stroke="#2f2f2f" stroke-width="3" marker-end="url(#arrow)"/>


    <rect x="315" y="1582" width="188" height="74" rx="14" fill="#f7f7fb" stroke="#2f2f2f" stroke-width="2" />
    <path d="M 320 1649 C 367.64 1655, 452.24 1645, 498 1651" fill="none" stroke="#2f2f2f" stroke-opacity="0.18" stroke-width="2"/>
  <text x="409" y="1614" font-size="18" font-weight="650" fill="#222222" text-anchor="middle"><tspan x="409" dy="0">Driver</tspan></text>
    <line x1="507" y1="1619" x2="524" y2="1619" stroke="#2f2f2f" stroke-width="3" marker-end="url(#arrow)"/>


    <rect x="532" y="1582" width="188" height="74" rx="14" fill="#f7f7fb" stroke="#2f2f2f" stroke-width="2" />
    <path d="M 537 1649 C 584.64 1655, 669.24 1645, 715 1651" fill="none" stroke="#2f2f2f" stroke-opacity="0.18" stroke-width="2"/>
  <text x="626" y="1614" font-size="18" font-weight="650" fill="#222222" text-anchor="middle"><tspan x="626" dy="0">iOS/Android</tspan></text>
    <line x1="724" y1="1619" x2="741" y2="1619" stroke="#2f2f2f" stroke-width="3" marker-end="url(#arrow)"/>


    <rect x="749" y="1582" width="188" height="74" rx="14" fill="#f7f7fb" stroke="#2f2f2f" stroke-width="2" />
    <path d="M 754 1649 C 801.64 1655, 886.24 1645, 932 1651" fill="none" stroke="#2f2f2f" stroke-opacity="0.18" stroke-width="2"/>
  <text x="843" y="1614" font-size="18" font-weight="650" fill="#222222" text-anchor="middle"><tspan x="843" dy="0">Evidence</tspan></text>
    <line x1="941" y1="1619" x2="958" y2="1619" stroke="#2f2f2f" stroke-width="3" marker-end="url(#arrow)"/>


    <rect x="966" y="1582" width="188" height="74" rx="14" fill="#f7f7fb" stroke="#2f2f2f" stroke-width="2" />
    <path d="M 971 1649 C 1018.64 1655, 1103.24 1645, 1149 1651" fill="none" stroke="#2f2f2f" stroke-opacity="0.18" stroke-width="2"/>
  <text x="1060" y="1614" font-size="18" font-weight="650" fill="#222222" text-anchor="middle"><tspan x="1060" dy="0">Monitor</tspan></text><circle cx="98" cy="1693" r="5" fill="#0a84ff"/><text x="116" y="1700" font-size="19" font-weight="500" fill="#222222" text-anchor="start"><tspan x="116" dy="0">iOS 读取 syslog 摘要</tspan></text><circle cx="98" cy="1724" r="5" fill="#0a84ff"/><text x="116" y="1731" font-size="19" font-weight="500" fill="#222222" text-anchor="start"><tspan x="116" dy="0">Android 读取 logcat / dumpsys 摘要</tspan></text><circle cx="98" cy="1755" r="5" fill="#0a84ff"/><text x="116" y="1762" font-size="19" font-weight="500" fill="#222222" text-anchor="start"><tspan x="116" dy="0">长期保存前裁剪脱敏</tspan></text>
    </g>
  </svg>